<?xml version="1.0" encoding="UTF-8" standalone="no"?>
<svg
   xmlns:dc="http://purl.org/dc/elements/1.1/"
   xmlns:cc="http://creativecommons.org/ns#"
   xmlns:rdf="http://www.w3.org/1999/02/22-rdf-syntax-ns#"
   xmlns:svg="http://www.w3.org/2000/svg"
   xmlns="http://www.w3.org/2000/svg"
   xmlns:sodipodi="http://sodipodi.sourceforge.net/DTD/sodipodi-0.dtd"
   xmlns:inkscape="http://www.inkscape.org/namespaces/inkscape"
   width="351.269pt"
   height="89.8478pt"
   viewBox="0 0 351.269 89.8478"
   version="1.2"
   id="svg71"
   sodipodi:docname="anr-logo.svg"
   inkscape:version="0.92.5 (2060ec1f9f, 2020-04-08)">
  <metadata
     id="metadata77">
    <rdf:RDF>
      <cc:Work
         rdf:about="">
        <dc:format>image/svg+xml</dc:format>
        <dc:type
           rdf:resource="http://purl.org/dc/dcmitype/StillImage" />
        <dc:title></dc:title>
      </cc:Work>
    </rdf:RDF>
  </metadata>
  <defs
     id="defs75" />
  <sodipodi:namedview
     pagecolor="#ffffff"
     bordercolor="#666666"
     borderopacity="1"
     objecttolerance="10"
     gridtolerance="10"
     guidetolerance="10"
     inkscape:pageopacity="0"
     inkscape:pageshadow="2"
     inkscape:window-width="640"
     inkscape:window-height="480"
     id="namedview73"
     showgrid="false"
     inkscape:zoom="0.74088516"
     inkscape:cx="234.17934"
     inkscape:cy="59.898534"
     inkscape:window-x="72"
     inkscape:window-y="27"
     inkscape:window-maximized="0"
     inkscape:current-layer="svg71" />
  <g
     id="surface784"
     style="fill:#ffffff">
    <path
       style="stroke:none;fill-rule:nonzero;fill:#ffffff;fill-opacity:1"
       d="M 163.484375 4.804688 C 162.296875 4.804688 161.117188 5.070312 160.011719 5.59375 C 158.054688 6.523438 156.578125 8.160156 155.855469 10.199219 C 155.128906 12.238281 155.242188 14.4375 156.171875 16.394531 C 157.101562 18.347656 158.734375 19.828125 160.773438 20.550781 C 162.816406 21.277344 165.015625 21.167969 166.96875 20.234375 C 171.003906 18.316406 172.726562 13.472656 170.808594 9.433594 C 169.878906 7.480469 168.246094 6.003906 166.207031 5.277344 C 165.316406 4.960938 164.402344 4.804688 163.484375 4.804688 M 163.496094 23.03125 C 162.355469 23.03125 161.210938 22.832031 160.101562 22.441406 C 157.558594 21.535156 155.519531 19.695312 154.359375 17.253906 C 151.96875 12.21875 154.117188 6.179688 159.152344 3.785156 C 164.183594 1.394531 170.226562 3.539062 172.621094 8.574219 C 175.011719 13.609375 172.863281 19.652344 167.832031 22.046875 C 166.453125 22.699219 164.976562 23.03125 163.496094 23.03125 "
       id="path2" />
    <path
       style="stroke:none;fill-rule:nonzero;fill:#ffffff;fill-opacity:1"
       d="M 163.488281 9.234375 C 162.949219 9.234375 162.410156 9.351562 161.910156 9.589844 C 160.078125 10.460938 159.296875 12.664062 160.167969 14.496094 C 161.035156 16.328125 163.238281 17.109375 165.070312 16.238281 C 165.957031 15.816406 166.628906 15.074219 166.957031 14.148438 C 167.289062 13.222656 167.238281 12.222656 166.8125 11.335938 C 166.390625 10.449219 165.648438 9.777344 164.722656 9.449219 C 164.320312 9.304688 163.902344 9.234375 163.488281 9.234375 M 163.5 18.597656 C 161.371094 18.597656 159.328125 17.398438 158.355469 15.355469 C 157.011719 12.523438 158.21875 9.128906 161.050781 7.78125 C 162.421875 7.128906 163.960938 7.050781 165.394531 7.558594 C 166.824219 8.070312 167.972656 9.105469 168.625 10.476562 C 169.277344 11.847656 169.355469 13.390625 168.84375 14.820312 C 168.335938 16.25 167.300781 17.398438 165.929688 18.046875 C 165.144531 18.421875 164.316406 18.597656 163.5 18.597656 "
       id="path4" />
    <path
       style="stroke:none;fill-rule:nonzero;fill:#ffffff;fill-opacity:1"
       d="M 30.429688 53.414062 C 29.351562 54.074219 28.179688 54.40625 26.917969 54.40625 C 24.632812 54.40625 22.828125 53.597656 21.503906 51.972656 C 20.183594 50.351562 19.519531 48.277344 19.519531 45.753906 C 19.519531 44.070312 19.867188 42.582031 20.558594 41.289062 C 21.25 39.996094 22.316406 39.035156 23.761719 38.402344 C 25.203125 37.773438 27.007812 37.515625 29.167969 37.636719 C 29.769531 37.699219 30.371094 37.742188 30.972656 37.773438 C 31.136719 37.78125 31.269531 37.820312 31.425781 37.835938 L 31.425781 50.261719 C 31.425781 51.0625 31.476562 51.816406 31.558594 52.546875 C 31.195312 52.878906 30.820312 53.175781 30.429688 53.414062 M 52.25 53.863281 C 50.085938 54.886719 48.597656 54.902344 47.789062 53.910156 C 46.976562 52.917969 46.570312 50.949219 46.570312 48.003906 L 46.570312 30.964844 C 46.570312 26.21875 45.15625 22.445312 42.332031 19.648438 C 39.507812 16.855469 35.089844 15.457031 29.078125 15.457031 C 26.433594 15.457031 23.203125 15.742188 19.386719 16.3125 C 15.570312 16.886719 11.617188 17.652344 7.53125 18.613281 L 7.53125 31.957031 L 7.980469 31.957031 C 12.1875 28.53125 16.15625 25.632812 19.882812 23.257812 C 23.609375 20.882812 26.375 19.695312 28.179688 19.695312 C 29.378906 19.695312 30.21875 20.460938 30.703125 21.992188 C 31.183594 23.527344 31.425781 26.15625 31.425781 29.882812 L 31.425781 34.957031 C 31.203125 34.871094 30.980469 34.785156 30.746094 34.707031 C 29.394531 34.253906 28.011719 33.910156 26.601562 33.671875 C 25.1875 33.429688 23.851562 33.308594 22.585938 33.308594 C 19.28125 33.128906 16.183594 33.625 13.300781 34.796875 C 10.414062 35.96875 8.117188 37.710938 6.402344 40.023438 C 4.691406 42.339844 3.835938 45 3.835938 48.003906 C 3.835938 50.472656 4.390625 52.8125 5.503906 55.035156 C 6.613281 57.261719 8.285156 59.066406 10.503906 60.449219 C 12.726562 61.828125 15.375 62.523438 18.441406 62.523438 C 21.324219 62.523438 23.851562 61.933594 26.011719 60.761719 C 28.179688 59.589844 29.875 58.179688 31.109375 56.527344 C 31.472656 56.039062 31.78125 55.5625 32.0625 55.09375 C 32.542969 56.722656 33.285156 58.121094 34.308594 59.277344 C 36.230469 61.4375 38.90625 62.523438 42.332031 62.523438 C 45.277344 62.523438 47.636719 61.738281 49.410156 60.175781 C 51.183594 58.613281 52.191406 56.601562 52.429688 54.136719 Z M 52.25 53.863281 "
       id="path6" />
    <path
       style="stroke:none;fill-rule:nonzero;fill:#ffffff;fill-opacity:1"
       d="M 104.722656 60.355469 C 104.003906 57.652344 103.429688 55.308594 103.011719 53.324219 C 102.589844 51.339844 102.378906 49.210938 102.378906 46.921875 L 102.378906 30.515625 C 102.378906 25.769531 100.96875 22.070312 98.140625 19.425781 C 95.316406 16.78125 91.769531 15.457031 87.503906 15.457031 C 83.59375 15.457031 80.273438 16.523438 77.539062 18.660156 C 75.632812 20.148438 74.121094 21.839844 72.984375 23.722656 L 72.984375 16 L 55.40625 16 L 55.40625 16.359375 L 55.675781 17.351562 C 56.394531 20.054688 56.953125 22.398438 57.34375 24.382812 C 57.734375 26.367188 57.929688 28.5 57.929688 30.785156 L 57.929688 46.921875 C 57.929688 49.210938 57.734375 51.339844 57.34375 53.324219 C 56.953125 55.308594 56.394531 57.652344 55.675781 60.355469 L 55.40625 61.351562 L 55.40625 61.710938 L 75.601562 61.710938 L 75.601562 61.351562 L 75.332031 60.355469 C 74.609375 57.652344 74.039062 55.308594 73.617188 53.324219 C 73.199219 51.339844 72.984375 49.210938 72.984375 46.921875 L 72.984375 26.847656 C 75.484375 25.390625 77.859375 24.652344 80.109375 24.652344 C 82.214844 24.714844 83.941406 25.375 85.292969 26.636719 C 86.648438 27.898438 87.324219 29.882812 87.324219 32.585938 L 87.324219 46.921875 C 87.324219 49.210938 87.128906 51.339844 86.738281 53.324219 C 86.34375 55.308594 85.789062 57.652344 85.070312 60.355469 L 84.796875 61.351562 L 84.796875 61.710938 L 104.996094 61.710938 L 104.996094 61.351562 Z M 104.722656 60.355469 "
       id="path8" />
    <path
       style="stroke:none;fill-rule:nonzero;fill:#ffffff;fill-opacity:1"
       d="M 137.222656 15.324219 C 134.609375 16.132812 132.429688 17.5625 130.6875 19.605469 C 129.289062 21.246094 128.089844 23.171875 127.082031 25.351562 L 127.082031 15.996094 L 109.5 15.996094 L 109.5 16.359375 L 109.769531 17.351562 C 110.492188 20.054688 111.046875 22.398438 111.4375 24.382812 C 111.832031 26.367188 112.027344 28.5 112.027344 30.785156 L 112.027344 46.921875 C 112.027344 49.207031 111.832031 51.339844 111.4375 53.324219 C 111.046875 55.308594 110.492188 57.652344 109.769531 60.359375 L 109.5 61.347656 L 109.5 61.710938 L 129.695312 61.710938 L 129.695312 61.347656 L 129.425781 60.359375 C 128.703125 57.652344 128.132812 55.308594 127.710938 53.324219 C 127.292969 51.339844 127.082031 49.207031 127.082031 46.921875 L 127.082031 27.617188 C 128.859375 26.550781 130.648438 26.027344 132.449219 26.050781 C 134.578125 26.082031 136.578125 26.636719 138.441406 27.71875 C 140.304688 28.800781 141.988281 30.183594 143.492188 31.867188 L 143.941406 31.867188 L 146.285156 15.820312 C 142.859375 14.675781 139.839844 14.511719 137.222656 15.324219 "
       id="path10" />
    <path
       style="stroke:none;fill-rule:nonzero;fill:#ffffff;fill-opacity:1"
       d="M 162.597656 59.628906 C 162.121094 59.976562 161.605469 60.148438 161.046875 60.148438 C 160.320312 60.148438 159.722656 59.902344 159.25 59.40625 C 158.78125 58.910156 158.546875 58.273438 158.546875 57.492188 C 158.546875 56.917969 158.707031 56.40625 159.027344 55.957031 C 159.351562 55.503906 159.832031 55.175781 160.476562 54.976562 C 161.117188 54.78125 161.882812 54.75 162.769531 54.886719 C 162.921875 54.910156 163.050781 54.90625 163.183594 54.90625 L 163.183594 59.003906 C 163.183594 59.027344 163.1875 59.050781 163.1875 59.074219 C 163.003906 59.285156 162.808594 59.472656 162.597656 59.628906 M 166.859375 59.992188 C 166.597656 59.75 166.464844 59.261719 166.464844 58.535156 L 166.464844 52.699219 C 166.464844 51.398438 166.058594 50.371094 165.242188 49.625 C 164.425781 48.878906 163.226562 48.507812 161.648438 48.507812 C 160.902344 48.507812 160.035156 48.59375 159.054688 48.765625 C 158.074219 48.941406 157.070312 49.183594 156.046875 49.496094 L 156.046875 52.832031 L 156.179688 52.832031 C 157.167969 51.890625 158.140625 51.117188 159.097656 50.5 C 160.050781 49.882812 160.839844 49.574219 161.464844 49.574219 C 162.003906 49.574219 162.421875 49.808594 162.726562 50.277344 C 163.03125 50.746094 163.183594 51.5 163.183594 52.542969 L 163.183594 54.140625 C 163 54.078125 162.800781 54.015625 162.574219 53.964844 C 162.234375 53.886719 161.882812 53.835938 161.519531 53.820312 C 160.386719 53.664062 159.332031 53.738281 158.351562 54.039062 C 157.371094 54.34375 156.589844 54.835938 156.007812 55.511719 C 155.425781 56.191406 155.136719 56.988281 155.136719 57.910156 C 155.136719 58.605469 155.296875 59.257812 155.617188 59.875 C 155.9375 60.492188 156.421875 60.988281 157.0625 61.359375 C 157.703125 61.734375 158.460938 61.921875 159.328125 61.921875 C 160.195312 61.921875 160.957031 61.742188 161.609375 61.386719 C 162.257812 61.03125 162.777344 60.597656 163.15625 60.082031 C 163.207031 60.015625 163.238281 59.953125 163.28125 59.886719 C 163.390625 60.375 163.578125 60.789062 163.875 61.113281 C 164.332031 61.617188 164.972656 61.867188 165.789062 61.867188 C 166.414062 61.867188 166.933594 61.707031 167.351562 61.386719 C 167.769531 61.066406 168.039062 60.632812 168.15625 60.097656 L 168.109375 60.019531 C 167.53125 60.246094 167.117188 60.238281 166.859375 59.992188 "
       id="path12" />
    <path
       style="stroke:none;fill-rule:nonzero;fill:#ffffff;fill-opacity:1"
       d="M 172.953125 62.46875 L 177.328125 62.46875 C 178.003906 62.46875 178.507812 62.597656 178.839844 62.855469 C 179.167969 63.117188 179.332031 63.457031 179.332031 63.875 C 179.332031 64.5 178.945312 64.996094 178.171875 65.355469 C 177.402344 65.722656 176.414062 65.90625 175.214844 65.90625 C 173.8125 65.90625 172.761719 65.628906 172.066406 65.074219 C 171.371094 64.515625 171.03125 63.785156 171.050781 62.882812 C 171.050781 62.636719 171.078125 62.433594 171.113281 62.234375 C 171.609375 62.382812 172.214844 62.46875 172.953125 62.46875 M 173.003906 50.445312 C 173.402344 49.78125 173.964844 49.445312 174.695312 49.445312 C 175.425781 49.445312 175.996094 49.785156 176.402344 50.460938 C 176.808594 51.136719 177.015625 52.023438 177.015625 53.117188 C 177.015625 54.210938 176.808594 55.09375 176.402344 55.773438 C 175.996094 56.449219 175.425781 56.789062 174.695312 56.789062 C 173.964844 56.789062 173.402344 56.453125 173.003906 55.785156 C 172.601562 55.117188 172.40625 54.226562 172.40625 53.117188 C 172.40625 52.007812 172.601562 51.117188 173.003906 50.445312 M 169.121094 63.902344 C 169.121094 65.046875 169.726562 65.835938 170.929688 66.269531 C 172.140625 66.703125 173.464844 66.921875 174.90625 66.921875 C 176.675781 66.921875 178.214844 66.628906 179.515625 66.050781 C 180.820312 65.464844 181.46875 64.421875 181.46875 62.910156 C 181.46875 61.78125 181.109375 60.898438 180.386719 60.265625 C 179.667969 59.632812 178.679688 59.316406 177.429688 59.316406 L 173.183594 59.316406 C 172.59375 59.316406 172.136719 59.257812 171.804688 59.148438 C 171.472656 59.03125 171.308594 58.804688 171.308594 58.457031 C 171.308594 58.054688 171.542969 57.742188 172.011719 57.503906 C 172.171875 57.425781 172.339844 57.378906 172.503906 57.328125 C 173.214844 57.574219 173.941406 57.726562 174.695312 57.726562 C 175.582031 57.726562 176.449219 57.550781 177.300781 57.195312 C 178.152344 56.835938 178.851562 56.308594 179.398438 55.601562 C 179.945312 54.902344 180.21875 54.0625 180.21875 53.089844 C 180.21875 52.117188 179.949219 51.289062 179.410156 50.601562 C 179.0625 50.160156 178.625 49.808594 178.144531 49.503906 C 178.546875 49.347656 178.945312 49.261719 179.332031 49.261719 C 179.957031 49.261719 180.539062 49.410156 181.078125 49.707031 L 181.128906 49.679688 L 181.625 47.101562 C 180.546875 46.945312 179.660156 47.117188 178.957031 47.621094 C 178.410156 48.011719 177.980469 48.550781 177.660156 49.230469 C 177.542969 49.171875 177.449219 49.089844 177.328125 49.039062 C 176.476562 48.683594 175.597656 48.507812 174.695312 48.507812 C 173.792969 48.507812 172.921875 48.683594 172.078125 49.039062 C 171.238281 49.394531 170.546875 49.921875 170.007812 50.617188 C 169.46875 51.308594 169.203125 52.132812 169.203125 53.089844 C 169.203125 54.0625 169.46875 54.902344 170.007812 55.601562 C 170.460938 56.199219 171.050781 56.640625 171.71875 56.988281 C 171.265625 57.105469 170.855469 57.265625 170.503906 57.480469 C 169.683594 57.972656 169.28125 58.734375 169.28125 59.757812 C 169.28125 60.539062 169.550781 61.1875 170.097656 61.699219 C 170.128906 61.726562 170.167969 61.742188 170.199219 61.769531 C 170.082031 61.871094 169.941406 61.945312 169.839844 62.0625 C 169.359375 62.609375 169.121094 63.222656 169.121094 63.902344 "
       id="path14" />
    <path
       style="stroke:none;fill-rule:nonzero;fill:#ffffff;fill-opacity:1"
       d="M 185.664062 54.21875 C 185.664062 54.195312 185.660156 54.179688 185.660156 54.160156 C 185.644531 52.820312 185.863281 51.707031 186.324219 50.8125 C 186.785156 49.917969 187.492188 49.46875 188.445312 49.46875 C 189.296875 49.46875 189.929688 49.84375 190.335938 50.589844 C 190.746094 51.335938 190.964844 52.335938 191 53.585938 Z M 193.65625 51.660156 C 193.242188 50.703125 192.59375 49.9375 191.71875 49.363281 C 190.839844 48.792969 189.769531 48.507812 188.5 48.507812 C 187.265625 48.507812 186.164062 48.78125 185.191406 49.328125 C 184.21875 49.875 183.464844 50.65625 182.925781 51.671875 C 182.386719 52.6875 182.117188 53.863281 182.117188 55.199219 C 182.117188 56.605469 182.414062 57.824219 183.003906 58.847656 C 183.59375 59.871094 184.375 60.644531 185.347656 61.164062 C 186.320312 61.6875 187.363281 61.945312 188.472656 61.945312 C 189.414062 61.945312 190.261719 61.769531 191.027344 61.410156 C 191.789062 61.058594 192.441406 60.589844 192.980469 60.003906 C 193.519531 59.425781 193.917969 58.804688 194.175781 58.144531 L 194.074219 58.066406 C 193.34375 58.671875 192.644531 59.109375 191.976562 59.378906 C 191.308594 59.648438 190.617188 59.785156 189.90625 59.785156 C 188.96875 59.785156 188.183594 59.542969 187.550781 59.070312 C 186.917969 58.589844 186.441406 57.929688 186.128906 57.089844 C 185.886719 56.4375 185.765625 55.675781 185.710938 54.863281 L 194.28125 54.863281 C 194.28125 53.679688 194.074219 52.613281 193.65625 51.660156 "
       id="path16" />
    <path
       style="stroke:none;fill-rule:nonzero;fill:#ffffff;fill-opacity:1"
       d="M 208.386719 59.46875 C 208.292969 58.933594 208.242188 58.371094 208.242188 57.777344 L 208.242188 52.910156 C 208.242188 51.46875 207.835938 50.371094 207.019531 49.625 C 206.203125 48.878906 205.1875 48.507812 203.972656 48.507812 C 202.945312 48.507812 202.046875 48.78125 201.277344 49.328125 C 200.683594 49.746094 200.199219 50.3125 199.777344 50.949219 L 199.777344 48.660156 L 195.898438 48.660156 L 195.898438 48.765625 L 196 49.132812 C 196.15625 49.773438 196.285156 50.363281 196.378906 50.902344 C 196.476562 51.441406 196.523438 52.007812 196.523438 52.59375 L 196.523438 57.777344 C 196.523438 58.371094 196.476562 58.933594 196.378906 59.46875 C 196.285156 60.007812 196.15625 60.601562 196 61.242188 L 195.898438 61.605469 L 195.898438 61.710938 L 200.378906 61.710938 L 200.378906 61.605469 L 200.300781 61.242188 C 200.144531 60.601562 200.015625 60.007812 199.921875 59.46875 C 199.824219 58.933594 199.777344 58.371094 199.777344 57.777344 L 199.777344 51.734375 C 200.714844 50.96875 201.625 50.5625 202.511719 50.5625 C 203.222656 50.582031 203.820312 50.816406 204.296875 51.265625 C 204.773438 51.71875 205.011719 52.402344 205.011719 53.324219 L 205.011719 57.777344 C 205.011719 58.371094 204.964844 58.933594 204.871094 59.46875 C 204.773438 60.007812 204.640625 60.601562 204.464844 61.242188 L 204.386719 61.605469 L 204.386719 61.710938 L 208.867188 61.710938 L 208.867188 61.605469 L 208.789062 61.242188 C 208.617188 60.601562 208.480469 60.007812 208.386719 59.46875 "
       id="path18" />
    <path
       style="stroke:none;fill-rule:nonzero;fill:#ffffff;fill-opacity:1"
       d="M 219.089844 61.4375 C 219.828125 61.097656 220.457031 60.648438 220.976562 60.082031 C 221.5 59.519531 221.898438 58.910156 222.175781 58.246094 L 222.101562 58.195312 C 220.78125 59.253906 219.433594 59.785156 218.0625 59.785156 C 217.140625 59.785156 216.363281 59.554688 215.730469 59.09375 C 215.097656 58.632812 214.621094 57.996094 214.296875 57.179688 C 213.976562 56.363281 213.816406 55.398438 213.816406 54.289062 C 213.800781 53.402344 213.90625 52.597656 214.128906 51.878906 C 214.355469 51.160156 214.691406 50.578125 215.132812 50.136719 C 215.574219 49.691406 216.136719 49.46875 216.8125 49.46875 C 217.679688 49.46875 218.519531 49.859375 219.324219 50.640625 C 220.132812 51.421875 220.839844 52.316406 221.449219 53.324219 L 221.578125 53.324219 L 221.527344 49.730469 C 221.320312 49.660156 221.066406 49.554688 220.773438 49.417969 C 220.042969 49.140625 219.363281 48.917969 218.738281 48.753906 C 218.113281 48.589844 217.445312 48.507812 216.734375 48.507812 C 215.464844 48.507812 214.347656 48.769531 213.375 49.300781 C 212.402344 49.832031 211.640625 50.597656 211.09375 51.605469 C 210.546875 52.613281 210.273438 53.8125 210.273438 55.199219 C 210.273438 56.640625 210.570312 57.871094 211.160156 58.886719 C 211.75 59.898438 212.53125 60.667969 213.503906 61.175781 C 214.476562 61.6875 215.519531 61.949219 216.628906 61.949219 C 217.53125 61.949219 218.351562 61.777344 219.089844 61.4375 "
       id="path20" />
    <path
       style="stroke:none;fill-rule:nonzero;fill:#ffffff;fill-opacity:1"
       d="M 227.582031 50.8125 C 228.042969 49.917969 228.75 49.46875 229.707031 49.46875 C 230.554688 49.46875 231.1875 49.84375 231.59375 50.589844 C 232.003906 51.335938 232.222656 52.335938 232.257812 53.585938 L 226.921875 54.21875 C 226.921875 54.195312 226.917969 54.179688 226.917969 54.160156 C 226.902344 52.820312 227.125 51.707031 227.582031 50.8125 M 226.605469 61.164062 C 227.578125 61.683594 228.621094 61.945312 229.730469 61.945312 C 230.671875 61.945312 231.519531 61.769531 232.285156 61.414062 C 233.046875 61.054688 233.699219 60.589844 234.238281 60.003906 C 234.777344 59.425781 235.175781 58.804688 235.433594 58.144531 L 235.332031 58.066406 C 234.601562 58.671875 233.902344 59.109375 233.234375 59.378906 C 232.566406 59.648438 231.875 59.785156 231.164062 59.785156 C 230.226562 59.785156 229.441406 59.546875 228.808594 59.070312 C 228.175781 58.589844 227.699219 57.929688 227.386719 57.089844 C 227.144531 56.4375 227.023438 55.675781 226.972656 54.863281 L 235.539062 54.863281 C 235.539062 53.679688 235.332031 52.613281 234.914062 51.65625 C 234.5 50.703125 233.851562 49.9375 232.976562 49.363281 C 232.097656 48.792969 231.027344 48.507812 229.757812 48.507812 C 228.527344 48.507812 227.421875 48.78125 226.449219 49.328125 C 225.476562 49.875 224.722656 50.65625 224.183594 51.671875 C 223.644531 52.6875 223.375 53.863281 223.375 55.199219 C 223.375 56.605469 223.671875 57.824219 224.261719 58.84375 C 224.851562 59.871094 225.632812 60.644531 226.605469 61.164062 "
       id="path22" />
    <path
       style="stroke:none;fill-rule:nonzero;fill:#ffffff;fill-opacity:1"
       d="M 252.011719 59.46875 C 251.917969 60.007812 251.78125 60.601562 251.609375 61.242188 L 251.53125 61.605469 L 251.53125 61.710938 L 256.011719 61.710938 L 256.011719 61.605469 L 255.933594 61.242188 C 255.757812 60.601562 255.625 60.007812 255.53125 59.46875 C 255.433594 58.933594 255.386719 58.371094 255.386719 57.777344 L 255.386719 52.910156 C 255.386719 51.46875 254.976562 50.371094 254.160156 49.625 C 253.347656 48.878906 252.332031 48.507812 251.113281 48.507812 C 250.089844 48.507812 249.191406 48.78125 248.417969 49.328125 C 247.824219 49.746094 247.34375 50.3125 246.917969 50.949219 L 246.917969 48.660156 L 243.039062 48.660156 L 243.039062 48.765625 L 243.144531 49.132812 C 243.300781 49.773438 243.425781 50.363281 243.519531 50.902344 C 243.617188 51.441406 243.664062 52.007812 243.664062 52.59375 L 243.664062 57.777344 C 243.664062 58.371094 243.617188 58.933594 243.519531 59.46875 C 243.425781 60.007812 243.300781 60.601562 243.144531 61.242188 L 243.039062 61.605469 L 243.039062 61.710938 L 247.519531 61.710938 L 247.519531 61.605469 L 247.441406 61.242188 C 247.285156 60.601562 247.160156 60.007812 247.066406 59.46875 C 246.96875 58.933594 246.917969 58.371094 246.917969 57.777344 L 246.917969 51.734375 C 247.855469 50.96875 248.769531 50.5625 249.65625 50.5625 C 250.367188 50.582031 250.960938 50.816406 251.441406 51.265625 C 251.917969 51.71875 252.15625 52.402344 252.15625 53.324219 L 252.15625 57.777344 C 252.15625 58.371094 252.109375 58.933594 252.011719 59.46875 "
       id="path24" />
    <path
       style="stroke:none;fill-rule:nonzero;fill:#ffffff;fill-opacity:1"
       d="M 264.960938 59.628906 C 264.480469 59.976562 263.964844 60.148438 263.410156 60.148438 C 262.679688 60.148438 262.082031 59.902344 261.613281 59.40625 C 261.144531 58.910156 260.90625 58.273438 260.90625 57.492188 C 260.90625 56.917969 261.070312 56.40625 261.390625 55.957031 C 261.710938 55.503906 262.195312 55.175781 262.835938 54.976562 C 263.480469 54.78125 264.242188 54.75 265.128906 54.886719 C 265.28125 54.910156 265.410156 54.90625 265.546875 54.90625 L 265.546875 59.003906 C 265.546875 59.027344 265.550781 59.050781 265.550781 59.074219 C 265.363281 59.285156 265.171875 59.472656 264.960938 59.628906 M 268.148438 61.867188 C 268.773438 61.867188 269.296875 61.707031 269.714844 61.386719 C 270.128906 61.066406 270.398438 60.632812 270.519531 60.097656 L 270.46875 60.019531 C 269.894531 60.246094 269.476562 60.238281 269.21875 59.992188 C 268.957031 59.75 268.828125 59.261719 268.828125 58.535156 L 268.828125 52.699219 C 268.828125 51.398438 268.417969 50.371094 267.601562 49.625 C 266.789062 48.878906 265.589844 48.507812 264.007812 48.507812 C 263.261719 48.507812 262.398438 48.59375 261.417969 48.765625 C 260.4375 48.941406 259.433594 49.183594 258.40625 49.496094 L 258.40625 52.832031 L 258.539062 52.832031 C 259.527344 51.890625 260.5 51.117188 261.457031 50.5 C 262.414062 49.882812 263.203125 49.574219 263.828125 49.574219 C 264.363281 49.574219 264.785156 49.808594 265.089844 50.277344 C 265.394531 50.746094 265.546875 51.5 265.546875 52.542969 L 265.546875 54.140625 C 265.359375 54.078125 265.160156 54.015625 264.933594 53.964844 C 264.59375 53.886719 264.242188 53.835938 263.878906 53.820312 C 262.75 53.664062 261.695312 53.738281 260.714844 54.039062 C 259.730469 54.34375 258.953125 54.835938 258.371094 55.511719 C 257.789062 56.191406 257.496094 56.988281 257.496094 57.910156 C 257.496094 58.605469 257.65625 59.257812 257.980469 59.875 C 258.300781 60.492188 258.78125 60.988281 259.425781 61.359375 C 260.066406 61.734375 260.820312 61.921875 261.691406 61.921875 C 262.558594 61.921875 263.316406 61.742188 263.96875 61.386719 C 264.621094 61.03125 265.136719 60.597656 265.519531 60.082031 C 265.570312 60.015625 265.597656 59.953125 265.644531 59.886719 C 265.75 60.375 265.941406 60.789062 266.234375 61.113281 C 266.695312 61.617188 267.335938 61.867188 268.148438 61.867188 "
       id="path26" />
    <path
       style="stroke:none;fill-rule:nonzero;fill:#ffffff;fill-opacity:1"
       d="M 276.15625 59.25 C 275.835938 58.910156 275.675781 58.394531 275.675781 57.699219 L 275.675781 49.730469 L 279.242188 49.730469 L 279.242188 48.660156 L 275.675781 48.660156 L 275.675781 44.546875 L 275.46875 44.546875 C 274.878906 45.519531 274.199219 46.363281 273.4375 47.074219 C 272.671875 47.785156 271.699219 48.367188 270.519531 48.820312 L 270.519531 49.730469 L 272.421875 49.730469 L 272.421875 58.039062 C 272.421875 59.273438 272.714844 60.234375 273.304688 60.917969 C 273.894531 61.601562 274.710938 61.945312 275.753906 61.945312 C 276.707031 61.945312 277.511719 61.683594 278.164062 61.152344 C 278.8125 60.621094 279.3125 59.941406 279.660156 59.105469 C 278.894531 59.539062 278.175781 59.757812 277.5 59.757812 C 276.925781 59.757812 276.480469 59.589844 276.15625 59.25 "
       id="path28" />
    <path
       style="stroke:none;fill-rule:nonzero;fill:#ffffff;fill-opacity:1"
       d="M 283.253906 46.292969 C 283.828125 46.292969 284.328125 46.089844 284.753906 45.679688 C 285.179688 45.273438 285.394531 44.773438 285.394531 44.183594 C 285.394531 43.609375 285.183594 43.117188 284.769531 42.710938 C 284.347656 42.300781 283.847656 42.101562 283.253906 42.101562 C 282.664062 42.101562 282.164062 42.300781 281.746094 42.710938 C 281.328125 43.117188 281.121094 43.609375 281.121094 44.183594 C 281.121094 44.773438 281.328125 45.273438 281.746094 45.679688 C 282.164062 46.089844 282.664062 46.292969 283.253906 46.292969 "
       id="path30" />
    <path
       style="stroke:none;fill-rule:nonzero;fill:#ffffff;fill-opacity:1"
       d="M 285 57.777344 L 285 48.660156 L 281.144531 48.660156 L 281.144531 48.765625 L 281.25 49.132812 C 281.40625 49.773438 281.53125 50.363281 281.628906 50.902344 C 281.722656 51.441406 281.769531 52.007812 281.769531 52.59375 L 281.769531 57.777344 C 281.769531 58.371094 281.722656 58.933594 281.628906 59.46875 C 281.53125 60.007812 281.394531 60.601562 281.222656 61.242188 L 281.144531 61.609375 L 281.144531 61.710938 L 285.625 61.710938 L 285.625 61.609375 L 285.519531 61.242188 C 285.367188 60.601562 285.238281 60.007812 285.144531 59.46875 C 285.046875 58.933594 285 58.371094 285 57.777344 "
       id="path32" />
    <path
       style="stroke:none;fill-rule:nonzero;fill:#ffffff;fill-opacity:1"
       d="M 291.132812 52.296875 C 291.351562 51.453125 291.6875 50.773438 292.136719 50.25 C 292.589844 49.730469 293.144531 49.46875 293.804688 49.46875 C 294.464844 49.46875 295.019531 49.730469 295.472656 50.25 C 295.921875 50.773438 296.257812 51.453125 296.472656 52.296875 C 296.691406 53.136719 296.800781 54.089844 296.800781 55.148438 C 296.800781 56.222656 296.691406 57.199219 296.472656 58.066406 C 296.257812 58.933594 295.917969 59.632812 295.460938 60.164062 C 295 60.691406 294.445312 60.957031 293.804688 60.957031 C 293.128906 60.957031 292.566406 60.691406 292.125 60.164062 C 291.683594 59.632812 291.351562 58.9375 291.132812 58.078125 C 290.917969 57.21875 290.808594 56.242188 290.808594 55.148438 C 290.808594 54.089844 290.917969 53.136719 291.132812 52.296875 M 290.457031 61.152344 C 291.457031 61.679688 292.570312 61.945312 293.804688 61.945312 C 295.003906 61.945312 296.109375 61.679688 297.125 61.152344 C 298.140625 60.621094 298.949219 59.84375 299.546875 58.820312 C 300.148438 57.796875 300.445312 56.574219 300.445312 55.148438 C 300.445312 53.757812 300.148438 52.566406 299.546875 51.566406 C 298.949219 50.570312 298.144531 49.808594 297.136719 49.285156 C 296.128906 48.765625 295.019531 48.507812 293.804688 48.507812 C 292.570312 48.507812 291.457031 48.761719 290.457031 49.273438 C 289.460938 49.789062 288.664062 50.542969 288.074219 51.539062 C 287.484375 52.539062 287.191406 53.742188 287.191406 55.148438 C 287.191406 56.574219 287.484375 57.796875 288.074219 58.820312 C 288.664062 59.84375 289.460938 60.621094 290.457031 61.152344 "
       id="path34" />
    <path
       style="stroke:none;fill-rule:nonzero;fill:#ffffff;fill-opacity:1"
       d="M 306.308594 61.710938 L 306.308594 61.605469 L 306.230469 61.242188 C 306.074219 60.601562 305.945312 60.007812 305.851562 59.46875 C 305.753906 58.933594 305.707031 58.371094 305.707031 57.777344 L 305.707031 51.734375 C 306.644531 50.96875 307.558594 50.5625 308.441406 50.5625 C 309.15625 50.582031 309.75 50.816406 310.226562 51.265625 C 310.703125 51.71875 310.945312 52.402344 310.945312 53.324219 L 310.945312 57.777344 C 310.945312 58.371094 310.894531 58.933594 310.800781 59.46875 C 310.703125 60.007812 310.570312 60.601562 310.398438 61.242188 L 310.320312 61.605469 L 310.320312 61.710938 L 314.796875 61.710938 L 314.796875 61.605469 L 314.71875 61.242188 C 314.546875 60.601562 314.414062 60.007812 314.316406 59.46875 C 314.222656 58.933594 314.171875 58.371094 314.171875 57.777344 L 314.171875 52.910156 C 314.171875 51.46875 313.765625 50.371094 312.949219 49.625 C 312.132812 48.878906 311.117188 48.507812 309.902344 48.507812 C 308.878906 48.507812 307.980469 48.78125 307.207031 49.328125 C 306.613281 49.746094 306.132812 50.3125 305.707031 50.949219 L 305.707031 48.660156 L 301.828125 48.660156 L 301.828125 48.765625 L 301.933594 49.132812 C 302.085938 49.773438 302.214844 50.363281 302.308594 50.902344 C 302.40625 51.441406 302.453125 52.007812 302.453125 52.59375 L 302.453125 57.777344 C 302.453125 58.371094 302.40625 58.933594 302.308594 59.46875 C 302.214844 60.007812 302.085938 60.601562 301.933594 61.242188 L 301.828125 61.605469 L 301.828125 61.710938 Z M 306.308594 61.710938 "
       id="path36" />
    <path
       style="stroke:none;fill-rule:nonzero;fill:#ffffff;fill-opacity:1"
       d="M 320.175781 55.957031 C 320.5 55.503906 320.980469 55.175781 321.621094 54.976562 C 322.265625 54.78125 323.027344 54.75 323.914062 54.886719 C 324.070312 54.910156 324.199219 54.90625 324.332031 54.90625 L 324.332031 59.003906 C 324.332031 59.027344 324.335938 59.050781 324.335938 59.074219 C 324.152344 59.285156 323.957031 59.472656 323.746094 59.628906 C 323.269531 59.976562 322.75 60.148438 322.195312 60.148438 C 321.464844 60.148438 320.867188 59.902344 320.398438 59.40625 C 319.929688 58.910156 319.695312 58.273438 319.695312 57.492188 C 319.695312 56.917969 319.855469 56.40625 320.175781 55.957031 M 320.476562 61.921875 C 321.34375 61.921875 322.105469 61.742188 322.753906 61.386719 C 323.40625 61.03125 323.921875 60.597656 324.304688 60.082031 C 324.355469 60.015625 324.382812 59.953125 324.429688 59.886719 C 324.535156 60.375 324.726562 60.789062 325.023438 61.113281 C 325.480469 61.617188 326.121094 61.867188 326.9375 61.867188 C 327.5625 61.867188 328.082031 61.707031 328.5 61.386719 C 328.914062 61.066406 329.183594 60.632812 329.304688 60.097656 L 329.253906 60.019531 C 328.679688 60.246094 328.265625 60.238281 328.003906 59.992188 C 327.742188 59.75 327.613281 59.261719 327.613281 58.535156 L 327.613281 52.699219 C 327.613281 51.398438 327.203125 50.371094 326.390625 49.625 C 325.574219 48.878906 324.375 48.507812 322.796875 48.507812 C 322.046875 48.507812 321.183594 48.59375 320.203125 48.765625 C 319.222656 48.941406 318.21875 49.183594 317.195312 49.496094 L 317.195312 52.832031 L 317.324219 52.832031 C 318.316406 51.890625 319.285156 51.117188 320.242188 50.5 C 321.199219 49.882812 321.988281 49.574219 322.613281 49.574219 C 323.152344 49.574219 323.570312 49.808594 323.875 50.277344 C 324.179688 50.746094 324.332031 51.5 324.332031 52.542969 L 324.332031 54.140625 C 324.144531 54.078125 323.949219 54.015625 323.71875 53.964844 C 323.378906 53.886719 323.027344 53.835938 322.664062 53.820312 C 321.535156 53.664062 320.480469 53.738281 319.5 54.039062 C 318.519531 54.34375 317.738281 54.835938 317.15625 55.511719 C 316.574219 56.191406 316.285156 56.988281 316.285156 57.910156 C 316.285156 58.605469 316.445312 59.257812 316.765625 59.875 C 317.085938 60.492188 317.566406 60.988281 318.210938 61.359375 C 318.851562 61.734375 319.609375 61.921875 320.476562 61.921875 "
       id="path38" />
    <path
       style="stroke:none;fill-rule:nonzero;fill:#ffffff;fill-opacity:1"
       d="M 334.449219 59.46875 C 334.355469 58.933594 334.304688 58.371094 334.304688 57.777344 L 334.304688 42.28125 L 330.949219 42.699219 L 330.324219 42.800781 L 330.347656 42.90625 C 330.363281 42.957031 330.410156 43.074219 330.476562 43.246094 C 330.632812 43.785156 330.769531 44.328125 330.882812 44.871094 C 330.992188 45.417969 331.050781 46.015625 331.050781 46.65625 L 331.050781 57.777344 C 331.050781 58.371094 331.003906 58.933594 330.90625 59.46875 C 330.8125 60.007812 330.675781 60.601562 330.503906 61.242188 L 330.425781 61.605469 L 330.425781 61.710938 L 334.933594 61.710938 L 334.933594 61.605469 L 334.828125 61.242188 C 334.671875 60.601562 334.542969 60.007812 334.449219 59.46875 "
       id="path40" />
    <path
       style="stroke:none;fill-rule:nonzero;fill:#ffffff;fill-opacity:1"
       d="M 340.492188 50.8125 C 340.953125 49.917969 341.660156 49.46875 342.613281 49.46875 C 343.464844 49.46875 344.097656 49.84375 344.503906 50.589844 C 344.914062 51.335938 345.132812 52.335938 345.167969 53.585938 L 339.832031 54.21875 C 339.832031 54.195312 339.828125 54.179688 339.828125 54.160156 C 339.8125 52.820312 340.03125 51.707031 340.492188 50.8125 M 346.144531 59.378906 C 345.476562 59.648438 344.785156 59.785156 344.074219 59.785156 C 343.136719 59.785156 342.347656 59.546875 341.714844 59.070312 C 341.082031 58.589844 340.609375 57.929688 340.296875 57.089844 C 340.054688 56.4375 339.933594 55.675781 339.878906 54.863281 L 348.449219 54.863281 C 348.449219 53.679688 348.238281 52.613281 347.824219 51.65625 C 347.40625 50.703125 346.761719 49.9375 345.882812 49.363281 C 345.007812 48.792969 343.933594 48.507812 342.667969 48.507812 C 341.433594 48.507812 340.332031 48.78125 339.359375 49.328125 C 338.386719 49.875 337.628906 50.65625 337.09375 51.671875 C 336.554688 52.6875 336.285156 53.863281 336.285156 55.199219 C 336.285156 56.605469 336.582031 57.824219 337.171875 58.84375 C 337.761719 59.871094 338.542969 60.644531 339.515625 61.164062 C 340.488281 61.683594 341.527344 61.945312 342.640625 61.945312 C 343.578125 61.945312 344.429688 61.769531 345.191406 61.414062 C 345.957031 61.054688 346.609375 60.589844 347.148438 60.003906 C 347.683594 59.425781 348.085938 58.804688 348.34375 58.144531 L 348.238281 58.066406 C 347.511719 58.671875 346.8125 59.109375 346.144531 59.378906 "
       id="path42" />
    <path
       style="stroke:none;fill-rule:nonzero;fill:#ffffff;fill-opacity:1"
       d="M 163.277344 83.5 C 162.761719 83.839844 162.210938 84.007812 161.621094 84.007812 C 160.578125 84.007812 159.8125 83.527344 159.316406 82.5625 C 158.820312 81.597656 158.574219 80.378906 158.574219 78.902344 C 158.574219 77.964844 158.695312 77.136719 158.9375 76.414062 C 159.183594 75.695312 159.539062 75.128906 160.007812 74.722656 C 160.472656 74.3125 161.050781 74.109375 161.726562 74.109375 C 162.332031 74.109375 162.886719 74.277344 163.394531 74.605469 C 163.652344 74.777344 163.894531 74.976562 164.121094 75.203125 L 164.121094 82.078125 C 164.121094 82.324219 164.136719 82.546875 164.15625 82.757812 C 163.863281 83.046875 163.574219 83.300781 163.277344 83.5 M 167.519531 83.226562 C 167.425781 82.6875 167.378906 82.125 167.378906 81.535156 L 167.378906 66.035156 L 164.019531 66.453125 L 163.183594 66.582031 L 163.210938 66.660156 C 163.226562 66.730469 163.253906 66.816406 163.289062 66.921875 C 163.84375 68.085938 164.121094 69.25 164.121094 70.410156 L 164.121094 74.179688 C 163.820312 73.742188 163.460938 73.367188 163.027344 73.066406 C 162.246094 72.53125 161.371094 72.261719 160.398438 72.261719 C 159.441406 72.261719 158.558594 72.515625 157.742188 73.03125 C 156.925781 73.542969 156.269531 74.304688 155.773438 75.320312 C 155.277344 76.335938 155.03125 77.566406 155.03125 79.007812 C 155.03125 80.429688 155.273438 81.644531 155.761719 82.652344 C 156.246094 83.660156 156.886719 84.421875 157.675781 84.929688 C 158.464844 85.445312 159.328125 85.703125 160.265625 85.703125 C 161.152344 85.703125 161.988281 85.460938 162.777344 84.984375 C 163.351562 84.640625 163.84375 84.140625 164.269531 83.5 C 164.273438 83.519531 164.273438 83.546875 164.277344 83.5625 C 164.382812 83.964844 164.53125 84.371094 164.722656 84.789062 C 164.773438 84.910156 164.820312 85.027344 164.863281 85.140625 C 164.90625 85.253906 164.945312 85.363281 164.980469 85.464844 L 168.003906 85.464844 L 168.003906 85.363281 L 167.898438 84.996094 C 167.742188 84.355469 167.613281 83.761719 167.519531 83.226562 "
       id="path44" />
    <path
       style="stroke:none;fill-rule:nonzero;fill:#ffffff;fill-opacity:1"
       d="M 173.03125 77.972656 C 173.03125 77.953125 173.027344 77.933594 173.027344 77.914062 C 173.011719 76.578125 173.234375 75.460938 173.691406 74.566406 C 174.152344 73.671875 174.859375 73.222656 175.816406 73.222656 C 176.664062 73.222656 177.296875 73.597656 177.707031 74.34375 C 178.113281 75.089844 178.335938 76.089844 178.367188 77.339844 Z M 181.023438 75.414062 C 180.609375 74.457031 179.960938 73.691406 179.085938 73.121094 C 178.207031 72.546875 177.136719 72.261719 175.867188 72.261719 C 174.636719 72.261719 173.53125 72.535156 172.558594 73.082031 C 171.585938 73.628906 170.832031 74.410156 170.292969 75.425781 C 169.757812 76.441406 169.484375 77.617188 169.484375 78.953125 C 169.484375 80.359375 169.78125 81.578125 170.375 82.601562 C 170.960938 83.625 171.742188 84.398438 172.714844 84.917969 C 173.6875 85.441406 174.730469 85.703125 175.839844 85.703125 C 176.78125 85.703125 177.628906 85.523438 178.394531 85.167969 C 179.160156 84.8125 179.808594 84.34375 180.347656 83.757812 C 180.886719 83.179688 181.285156 82.558594 181.546875 81.898438 L 181.441406 81.820312 C 180.714844 82.425781 180.015625 82.867188 179.34375 83.132812 C 178.675781 83.40625 177.984375 83.539062 177.273438 83.539062 C 176.335938 83.539062 175.550781 83.300781 174.917969 82.824219 C 174.285156 82.34375 173.808594 81.683594 173.5 80.84375 C 173.253906 80.191406 173.136719 79.429688 173.082031 78.617188 L 181.648438 78.617188 C 181.648438 77.433594 181.441406 76.367188 181.023438 75.414062 "
       id="path46" />
    <path
       style="stroke:none;fill-rule:nonzero;fill:#ffffff;fill-opacity:1"
       d="M 193.175781 83.226562 C 193.082031 82.6875 193.03125 82.125 193.03125 81.53125 L 193.03125 66.035156 L 189.671875 66.453125 L 189.046875 66.558594 L 189.074219 66.660156 C 189.089844 66.710938 189.132812 66.828125 189.203125 67 C 189.359375 67.539062 189.496094 68.082031 189.609375 68.628906 C 189.71875 69.175781 189.777344 69.769531 189.777344 70.410156 L 189.777344 81.53125 C 189.777344 82.125 189.730469 82.6875 189.632812 83.226562 C 189.539062 83.765625 189.40625 84.355469 189.230469 85 L 189.152344 85.359375 L 189.152344 85.464844 L 193.660156 85.464844 L 193.660156 85.359375 L 193.554688 85 C 193.398438 84.355469 193.269531 83.765625 193.175781 83.226562 "
       id="path48" />
    <path
       style="stroke:none;fill-rule:nonzero;fill:#ffffff;fill-opacity:1"
       d="M 202.320312 83.382812 C 201.839844 83.730469 201.324219 83.902344 200.769531 83.902344 C 200.039062 83.902344 199.441406 83.65625 198.972656 83.160156 C 198.503906 82.664062 198.265625 82.027344 198.265625 81.246094 C 198.265625 80.671875 198.429688 80.160156 198.75 79.710938 C 199.070312 79.257812 199.554688 78.933594 200.195312 78.734375 C 200.839844 78.535156 201.601562 78.503906 202.488281 78.644531 C 202.640625 78.664062 202.769531 78.660156 202.90625 78.660156 L 202.90625 82.757812 C 202.90625 82.78125 202.910156 82.804688 202.910156 82.828125 C 202.722656 83.039062 202.53125 83.230469 202.320312 83.382812 M 206.578125 83.746094 C 206.316406 83.503906 206.1875 83.019531 206.1875 82.289062 L 206.1875 76.453125 C 206.1875 75.152344 205.777344 74.125 204.960938 73.382812 C 204.144531 72.632812 202.949219 72.261719 201.367188 72.261719 C 200.621094 72.261719 199.757812 72.347656 198.777344 72.519531 C 197.796875 72.695312 196.792969 72.9375 195.765625 73.25 L 195.765625 76.585938 L 195.898438 76.585938 C 196.886719 75.644531 197.859375 74.871094 198.816406 74.253906 C 199.769531 73.636719 200.558594 73.328125 201.183594 73.328125 C 201.722656 73.328125 202.144531 73.5625 202.449219 74.03125 C 202.753906 74.5 202.90625 75.257812 202.90625 76.296875 L 202.90625 77.894531 C 202.71875 77.832031 202.519531 77.769531 202.292969 77.71875 C 201.953125 77.640625 201.601562 77.59375 201.238281 77.574219 C 200.109375 77.417969 199.054688 77.492188 198.074219 77.792969 C 197.089844 78.101562 196.308594 78.589844 195.730469 79.269531 C 195.144531 79.945312 194.855469 80.742188 194.855469 81.664062 C 194.855469 82.359375 195.015625 83.015625 195.339844 83.628906 C 195.660156 84.246094 196.140625 84.742188 196.785156 85.113281 C 197.425781 85.488281 198.179688 85.675781 199.050781 85.675781 C 199.917969 85.675781 200.675781 85.496094 201.328125 85.140625 C 201.980469 84.785156 202.496094 84.351562 202.878906 83.839844 C 202.929688 83.769531 202.957031 83.707031 203.003906 83.640625 C 203.109375 84.128906 203.300781 84.542969 203.59375 84.867188 C 204.054688 85.371094 204.695312 85.621094 205.507812 85.621094 C 206.132812 85.621094 206.65625 85.460938 207.074219 85.140625 C 207.488281 84.820312 207.757812 84.390625 207.878906 83.851562 L 207.828125 83.773438 C 207.253906 84 206.835938 83.992188 206.578125 83.746094 "
       id="path50" />
    <path
       style="stroke:none;fill-rule:nonzero;fill:#ffffff;fill-opacity:1"
       d="M 221.605469 72.261719 C 220.859375 72.46875 220.222656 72.847656 219.691406 73.394531 C 219.296875 73.796875 218.988281 74.289062 218.714844 74.824219 L 218.714844 72.417969 L 214.835938 72.417969 L 214.835938 72.519531 L 214.9375 72.886719 C 215.09375 73.527344 215.222656 74.117188 215.316406 74.65625 C 215.410156 75.195312 215.460938 75.761719 215.460938 76.347656 L 215.460938 81.53125 C 215.460938 82.125 215.410156 82.6875 215.316406 83.226562 C 215.222656 83.761719 215.09375 84.355469 214.9375 84.996094 L 214.835938 85.363281 L 214.835938 85.464844 L 219.316406 85.464844 L 219.316406 85.363281 L 219.234375 84.996094 C 219.078125 84.355469 218.953125 83.761719 218.859375 83.226562 C 218.761719 82.6875 218.714844 82.125 218.714844 81.53125 L 218.714844 75.480469 C 219.183594 75.09375 219.667969 74.847656 220.171875 74.761719 C 220.78125 74.65625 221.367188 74.71875 221.933594 74.941406 C 222.496094 75.167969 223.003906 75.5 223.453125 75.933594 L 223.558594 75.933594 L 224.054688 72.390625 C 223.167969 72.097656 222.351562 72.050781 221.605469 72.261719 "
       id="path52" />
    <path
       style="stroke:none;fill-rule:nonzero;fill:#ffffff;fill-opacity:1"
       d="M 228.328125 77.972656 C 228.328125 77.953125 228.324219 77.933594 228.324219 77.914062 C 228.308594 76.578125 228.53125 75.460938 228.988281 74.566406 C 229.449219 73.671875 230.15625 73.222656 231.113281 73.222656 C 231.960938 73.222656 232.59375 73.597656 233.003906 74.34375 C 233.410156 75.089844 233.632812 76.089844 233.664062 77.339844 Z M 236.320312 75.414062 C 235.90625 74.457031 235.257812 73.691406 234.382812 73.121094 C 233.503906 72.546875 232.433594 72.261719 231.164062 72.261719 C 229.933594 72.261719 228.828125 72.535156 227.855469 73.082031 C 226.882812 73.628906 226.128906 74.410156 225.589844 75.425781 C 225.054688 76.441406 224.78125 77.617188 224.78125 78.953125 C 224.78125 80.359375 225.078125 81.578125 225.667969 82.601562 C 226.257812 83.625 227.039062 84.398438 228.011719 84.917969 C 228.984375 85.441406 230.027344 85.703125 231.136719 85.703125 C 232.078125 85.703125 232.925781 85.523438 233.691406 85.167969 C 234.457031 84.8125 235.105469 84.34375 235.644531 83.757812 C 236.183594 83.179688 236.582031 82.558594 236.84375 81.898438 L 236.738281 81.820312 C 236.011719 82.425781 235.3125 82.867188 234.640625 83.132812 C 233.972656 83.40625 233.28125 83.539062 232.570312 83.539062 C 231.632812 83.539062 230.847656 83.300781 230.214844 82.824219 C 229.582031 82.34375 229.105469 81.683594 228.796875 80.84375 C 228.550781 80.191406 228.433594 79.429688 228.378906 78.617188 L 236.945312 78.617188 C 236.945312 77.433594 236.738281 76.367188 236.320312 75.414062 "
       id="path54" />
    <path
       style="stroke:none;fill-rule:nonzero;fill:#ffffff;fill-opacity:1"
       d="M 246.324219 83.539062 C 245.402344 83.539062 244.625 83.308594 243.992188 82.851562 C 243.359375 82.390625 242.878906 81.75 242.558594 80.933594 C 242.238281 80.117188 242.074219 79.15625 242.074219 78.042969 C 242.058594 77.15625 242.164062 76.355469 242.390625 75.632812 C 242.613281 74.914062 242.949219 74.332031 243.394531 73.890625 C 243.835938 73.445312 244.394531 73.222656 245.074219 73.222656 C 245.941406 73.222656 246.777344 73.613281 247.585938 74.394531 C 248.394531 75.175781 249.101562 76.070312 249.710938 77.078125 L 249.839844 77.078125 L 249.785156 73.484375 C 249.578125 73.414062 249.324219 73.3125 249.03125 73.171875 C 248.304688 72.894531 247.625 72.671875 247 72.507812 C 246.375 72.34375 245.707031 72.261719 244.992188 72.261719 C 243.726562 72.261719 242.605469 72.523438 241.632812 73.054688 C 240.660156 73.585938 239.902344 74.355469 239.355469 75.359375 C 238.808594 76.367188 238.535156 77.566406 238.535156 78.953125 C 238.535156 80.394531 238.828125 81.625 239.421875 82.640625 C 240.011719 83.65625 240.792969 84.421875 241.765625 84.933594 C 242.738281 85.445312 243.777344 85.703125 244.890625 85.703125 C 245.792969 85.703125 246.613281 85.53125 247.351562 85.191406 C 248.089844 84.851562 248.71875 84.402344 249.238281 83.835938 C 249.761719 83.273438 250.160156 82.664062 250.4375 82 L 250.359375 81.949219 C 249.039062 83.007812 247.695312 83.539062 246.324219 83.539062 "
       id="path56" />
    <path
       style="stroke:none;fill-rule:nonzero;fill:#ffffff;fill-opacity:1"
       d="M 264.410156 83.226562 C 264.316406 82.6875 264.269531 82.125 264.269531 81.53125 L 264.269531 76.664062 C 264.269531 75.222656 263.859375 74.125 263.042969 73.382812 C 262.230469 72.632812 261.210938 72.261719 259.996094 72.261719 C 258.992188 72.261719 258.097656 72.53125 257.316406 73.066406 C 256.757812 73.449219 256.253906 73.949219 255.804688 74.558594 L 255.804688 66.035156 L 252.472656 66.453125 L 251.84375 66.558594 L 251.871094 66.660156 C 251.886719 66.710938 251.933594 66.828125 252 67 C 252.15625 67.539062 252.292969 68.082031 252.40625 68.628906 C 252.519531 69.175781 252.574219 69.769531 252.574219 70.410156 L 252.574219 81.53125 C 252.574219 82.125 252.527344 82.6875 252.429688 83.226562 C 252.335938 83.765625 252.203125 84.355469 252.027344 85 L 251.949219 85.359375 L 251.949219 85.464844 L 256.429688 85.464844 L 256.429688 85.359375 L 256.351562 85 C 256.175781 84.355469 256.042969 83.765625 255.949219 83.226562 C 255.851562 82.6875 255.804688 82.125 255.804688 81.53125 L 255.804688 75.371094 C 256.691406 74.699219 257.570312 74.34375 258.433594 74.34375 C 259.179688 74.34375 259.800781 74.570312 260.296875 75.019531 C 260.792969 75.472656 261.039062 76.15625 261.039062 77.078125 L 261.039062 81.53125 C 261.039062 82.125 260.992188 82.6875 260.898438 83.226562 C 260.800781 83.765625 260.664062 84.355469 260.492188 85 L 260.414062 85.359375 L 260.414062 85.464844 L 264.894531 85.464844 L 264.894531 85.359375 L 264.816406 85 C 264.644531 84.355469 264.507812 83.765625 264.410156 83.226562 "
       id="path58" />
    <path
       style="stroke:none;fill-rule:nonzero;fill:#ffffff;fill-opacity:1"
       d="M 269.898438 77.972656 C 269.898438 77.953125 269.894531 77.933594 269.894531 77.914062 C 269.875 76.578125 270.097656 75.460938 270.558594 74.566406 C 271.019531 73.671875 271.726562 73.222656 272.679688 73.222656 C 273.53125 73.222656 274.160156 73.597656 274.570312 74.34375 C 274.976562 75.089844 275.199219 76.089844 275.234375 77.339844 Z M 277.890625 75.414062 C 277.472656 74.457031 276.828125 73.691406 275.949219 73.121094 C 275.070312 72.546875 274 72.261719 272.734375 72.261719 C 271.5 72.261719 270.398438 72.535156 269.421875 73.082031 C 268.453125 73.628906 267.695312 74.410156 267.160156 75.425781 C 266.621094 76.441406 266.351562 77.617188 266.351562 78.953125 C 266.351562 80.359375 266.648438 81.578125 267.238281 82.601562 C 267.828125 83.625 268.609375 84.398438 269.582031 84.917969 C 270.554688 85.441406 271.59375 85.703125 272.707031 85.703125 C 273.644531 85.703125 274.496094 85.523438 275.257812 85.167969 C 276.023438 84.8125 276.671875 84.34375 277.210938 83.757812 C 277.75 83.179688 278.152344 82.558594 278.410156 81.898438 L 278.304688 81.820312 C 277.578125 82.425781 276.878906 82.867188 276.207031 83.132812 C 275.539062 83.40625 274.851562 83.539062 274.140625 83.539062 C 273.199219 83.539062 272.414062 83.300781 271.78125 82.824219 C 271.148438 82.34375 270.671875 81.683594 270.363281 80.84375 C 270.121094 80.191406 270 79.429688 269.945312 78.617188 L 278.515625 78.617188 C 278.515625 77.433594 278.304688 76.367188 277.890625 75.414062 "
       id="path60" />
    <path
       style="stroke:none;fill-rule:nonzero;fill:#ffffff;fill-opacity:1"
       d="M 286.902344 72.261719 C 286.152344 72.46875 285.515625 72.847656 284.988281 73.394531 C 284.59375 73.796875 284.28125 74.289062 284.007812 74.824219 L 284.007812 72.417969 L 280.128906 72.417969 L 280.128906 72.519531 L 280.234375 72.886719 C 280.390625 73.527344 280.515625 74.117188 280.609375 74.65625 C 280.707031 75.195312 280.753906 75.761719 280.753906 76.347656 L 280.753906 81.53125 C 280.753906 82.125 280.707031 82.6875 280.609375 83.226562 C 280.515625 83.761719 280.390625 84.355469 280.234375 84.996094 L 280.128906 85.363281 L 280.128906 85.464844 L 284.609375 85.464844 L 284.609375 85.363281 L 284.53125 84.996094 C 284.375 84.355469 284.25 83.761719 284.15625 83.226562 C 284.058594 82.6875 284.007812 82.125 284.007812 81.53125 L 284.007812 75.480469 C 284.476562 75.09375 284.964844 74.847656 285.46875 74.761719 C 286.078125 74.65625 286.664062 74.71875 287.226562 74.941406 C 287.792969 75.167969 288.296875 75.5 288.75 75.933594 L 288.855469 75.933594 L 289.351562 72.390625 C 288.464844 72.097656 287.648438 72.050781 286.902344 72.261719 "
       id="path62" />
    <path
       style="stroke:none;fill-rule:nonzero;fill:#ffffff;fill-opacity:1"
       d="M 297.871094 83.539062 C 296.949219 83.539062 296.171875 83.308594 295.539062 82.851562 C 294.90625 82.390625 294.425781 81.75 294.105469 80.933594 C 293.785156 80.117188 293.621094 79.15625 293.621094 78.042969 C 293.605469 77.15625 293.710938 76.355469 293.9375 75.632812 C 294.160156 74.914062 294.496094 74.332031 294.9375 73.890625 C 295.382812 73.445312 295.941406 73.222656 296.621094 73.222656 C 297.488281 73.222656 298.324219 73.613281 299.132812 74.394531 C 299.9375 75.175781 300.648438 76.070312 301.257812 77.078125 L 301.382812 77.078125 L 301.332031 73.484375 C 301.125 73.414062 300.871094 73.3125 300.578125 73.171875 C 299.847656 72.894531 299.171875 72.671875 298.546875 72.507812 C 297.921875 72.34375 297.253906 72.261719 296.542969 72.261719 C 295.273438 72.261719 294.152344 72.523438 293.179688 73.054688 C 292.207031 73.585938 291.449219 74.355469 290.902344 75.359375 C 290.355469 76.367188 290.082031 77.566406 290.082031 78.953125 C 290.082031 80.394531 290.375 81.625 290.96875 82.640625 C 291.554688 83.65625 292.339844 84.421875 293.3125 84.933594 C 294.285156 85.445312 295.324219 85.703125 296.4375 85.703125 C 297.339844 85.703125 298.160156 85.53125 298.898438 85.191406 C 299.636719 84.851562 300.265625 84.402344 300.785156 83.835938 C 301.308594 83.273438 301.707031 82.664062 301.984375 82 L 301.90625 81.949219 C 300.585938 83.007812 299.242188 83.539062 297.871094 83.539062 "
       id="path64" />
    <path
       style="stroke:none;fill-rule:nonzero;fill:#ffffff;fill-opacity:1"
       d="M 315.957031 83.226562 C 315.863281 82.6875 315.8125 82.125 315.8125 81.53125 L 315.8125 76.664062 C 315.8125 75.222656 315.40625 74.125 314.589844 73.382812 C 313.773438 72.632812 312.757812 72.261719 311.542969 72.261719 C 310.535156 72.261719 309.640625 72.53125 308.859375 73.066406 C 308.300781 73.453125 307.800781 73.949219 307.347656 74.558594 L 307.347656 66.035156 L 304.015625 66.453125 L 303.390625 66.558594 L 303.417969 66.660156 C 303.433594 66.710938 303.476562 66.828125 303.546875 67 C 303.703125 67.539062 303.835938 68.082031 303.949219 68.628906 C 304.0625 69.175781 304.117188 69.769531 304.117188 70.410156 L 304.117188 81.53125 C 304.117188 82.125 304.070312 82.6875 303.976562 83.226562 C 303.882812 83.765625 303.746094 84.355469 303.570312 85 L 303.492188 85.359375 L 303.492188 85.464844 L 307.972656 85.464844 L 307.972656 85.359375 L 307.898438 85 C 307.722656 84.355469 307.585938 83.765625 307.492188 83.226562 C 307.394531 82.6875 307.347656 82.125 307.347656 81.53125 L 307.347656 75.371094 C 308.238281 74.699219 309.113281 74.34375 309.980469 74.34375 C 310.726562 74.34375 311.347656 74.570312 311.84375 75.019531 C 312.335938 75.472656 312.585938 76.15625 312.585938 77.078125 L 312.585938 81.53125 C 312.585938 82.125 312.535156 82.6875 312.441406 83.226562 C 312.34375 83.765625 312.210938 84.355469 312.035156 85 L 311.960938 85.359375 L 311.960938 85.464844 L 316.4375 85.464844 L 316.4375 85.359375 L 316.359375 85 C 316.1875 84.355469 316.050781 83.765625 315.957031 83.226562 "
       id="path66" />
    <path
       style="stroke:none;fill-rule:nonzero;fill:#ffffff;fill-opacity:1"
       d="M 321.441406 77.972656 C 321.441406 77.953125 321.4375 77.933594 321.4375 77.914062 C 321.421875 76.578125 321.644531 75.460938 322.105469 74.566406 C 322.5625 73.671875 323.273438 73.222656 324.226562 73.222656 C 325.078125 73.222656 325.707031 73.597656 326.117188 74.34375 C 326.523438 75.089844 326.746094 76.089844 326.78125 77.339844 Z M 329.4375 75.414062 C 329.019531 74.457031 328.375 73.691406 327.496094 73.121094 C 326.617188 72.546875 325.546875 72.261719 324.277344 72.261719 C 323.046875 72.261719 321.941406 72.535156 320.96875 73.082031 C 320 73.628906 319.242188 74.410156 318.707031 75.425781 C 318.167969 76.441406 317.898438 77.617188 317.898438 78.953125 C 317.898438 80.359375 318.191406 81.578125 318.785156 82.601562 C 319.375 83.625 320.15625 84.398438 321.128906 84.917969 C 322.101562 85.441406 323.140625 85.703125 324.253906 85.703125 C 325.191406 85.703125 326.042969 85.523438 326.804688 85.167969 C 327.570312 84.8125 328.21875 84.34375 328.757812 83.757812 C 329.296875 83.179688 329.699219 82.558594 329.957031 81.898438 L 329.851562 81.820312 C 329.125 82.425781 328.425781 82.867188 327.757812 83.132812 C 327.085938 83.40625 326.398438 83.539062 325.683594 83.539062 C 324.746094 83.539062 323.960938 83.300781 323.328125 82.824219 C 322.695312 82.34375 322.21875 81.683594 321.910156 80.84375 C 321.667969 80.191406 321.546875 79.429688 321.492188 78.617188 L 330.0625 78.617188 C 330.0625 77.433594 329.851562 76.367188 329.4375 75.414062 "
       id="path68" />
  </g>
</svg>
