<?xml version="1.0" encoding="UTF-8" standalone="no"?>
<svg
   xmlns:dc="http://purl.org/dc/elements/1.1/"
   xmlns:cc="http://creativecommons.org/ns#"
   xmlns:rdf="http://www.w3.org/1999/02/22-rdf-syntax-ns#"
   xmlns:svg="http://www.w3.org/2000/svg"
   xmlns="http://www.w3.org/2000/svg"
   xmlns:sodipodi="http://sodipodi.sourceforge.net/DTD/sodipodi-0.dtd"
   xmlns:inkscape="http://www.inkscape.org/namespaces/inkscape"
   version="1.1"
   width="258.43198"
   height="479.09262"
   viewBox="0 0 258.43198 479.09262"
   id="svg84"
   sodipodi:docname="lifting-ppcts.svg"
   inkscape:version="0.92.5 (2060ec1f9f, 2020-04-08)"
   inkscape:export-filename="/home/shu3si/Documents/CRYPTECS Website/lifting-ppcts.png"
   inkscape:export-xdpi="111.41061"
   inkscape:export-ydpi="111.41061">
  <metadata
     id="metadata88">
    <rdf:RDF>
      <cc:Work
         rdf:about="">
        <dc:format>image/svg+xml</dc:format>
        <dc:type
           rdf:resource="http://purl.org/dc/dcmitype/StillImage" />
        <dc:title></dc:title>
      </cc:Work>
    </rdf:RDF>
  </metadata>
  <sodipodi:namedview
     pagecolor="#ffffff"
     bordercolor="#666666"
     borderopacity="1"
     objecttolerance="10"
     gridtolerance="10"
     guidetolerance="10"
     inkscape:pageopacity="0"
     inkscape:pageshadow="2"
     inkscape:window-width="2486"
     inkscape:window-height="1224"
     id="namedview86"
     showgrid="false"
     inkscape:zoom="1.0717213"
     inkscape:cx="-52.654474"
     inkscape:cy="144.75799"
     inkscape:window-x="72"
     inkscape:window-y="27"
     inkscape:window-maximized="1"
     inkscape:current-layer="svg84"
     fit-margin-top="0"
     fit-margin-left="0"
     fit-margin-right="0"
     fit-margin-bottom="0" />
  <path
     id="path184"
     d="m 93.197469,30.931334 c -0.32276,-0.34057 -0.65083,-0.67432 -0.9789,-1.00732 -0.3239,-0.32731 -0.65045,-0.64932 -0.97739,-0.96867 -0.75274,-0.73342 -1.51457,-1.44676 -2.28814,-2.13662 -0.13638,-0.12274 -0.26935,-0.25192 -0.40763,-0.37239 -0.90313,-0.79289 -1.82105,-1.54942 -2.75108,-2.27981 -0.24965,-0.197 -0.50385,-0.38338 -0.75615,-0.57583 -0.71675,-0.54514 -1.44032,-1.07134 -2.17033,-1.57708 -0.27768,-0.19207 -0.55423,-0.38565 -0.83343,-0.57203 -0.96527,-0.64364 -1.93887,-1.26341 -2.92269,-1.83242 -0.79366,-0.45763 -1.57898,-0.87283 -2.35937,-1.26719 -0.22503,-0.11365 -0.44968,-0.22086 -0.67432,-0.33034 -0.59553,-0.28754 -1.18499,-0.55802 -1.77256,-0.80995 -0.20912,-0.0883 -0.41823,-0.18297 -0.62432,-0.26821 -0.5512,-0.22541 -1.09899,-0.43111 -1.64261,-0.62545 -0.13601,-0.0485 -0.27504,-0.10532 -0.41104,-0.15154 -0.67583,-0.23146 -1.34523,-0.43679 -2.00592,-0.61863 -0.39019,-0.10721 -0.77509,-0.19851 -1.15998,-0.28867 -0.18146,-0.0424 -0.36368,-0.0932 -0.54476,-0.13221 -0.56636,-0.12161 -1.12551,-0.22692 -1.68126,-0.31216 -0.84593,-0.13032 -1.67179,-0.20381 -2.48741,-0.24889 -0.16555,-0.01 -0.33072,-0.0216 -0.49476,-0.0277 -0.73152,-0.0261 -1.45093,-0.0235 -2.15707,0.0174 -0.12161,0.008 -0.24094,0.0235 -0.36368,0.0314 -0.57014,0.0436 -1.13081,0.11062 -1.68126,0.19737 -0.17464,0.0277 -0.34663,0.0546 -0.5171,0.0856 -0.63341,0.11706 -1.25508,0.25344 -1.86121,0.42846 -0.0265,0.008 -0.0527,0.0193 -0.0792,0.0261 -0.57431,0.16934 -1.13233,0.37163 -1.67861,0.59249 -0.15987,0.0648 -0.3186,0.13373 -0.47733,0.20306 -0.46824,0.20419 -0.92359,0.42732 -1.37024,0.66977 -0.14812,0.0799 -0.30155,0.15078 -0.44702,0.23564 L 77.589929,2.5047139 c 0.0674,-0.0383 0.13486,-0.0773 0.20343,-0.11668 0.0784,-0.0439 0.16403,-0.0761 0.24359,-0.11896 0.44588,-0.24169 0.902,-0.46482 1.3691,-0.66826 0.0871,-0.039 0.16896,-0.0894 0.25647,-0.12577 0.0712,-0.0303 0.15077,-0.0496 0.22199,-0.0788 0.54628,-0.22086 1.10468,-0.42240001 1.67823,-0.59211001 0.0227,-0.006 0.0436,-0.017 0.0678,-0.0235 0.002,-0.001 0.008,-0.002 0.0129,-0.003 0.6031,-0.17502 1.22742,-0.31216 1.85856,-0.42846 0.075,-0.0144 0.14244,-0.0379 0.2182,-0.0504 0.0951,-0.017 0.20116,-0.0189 0.2989,-0.0352 0.55158,-0.0871 1.11263,-0.15381 1.6824,-0.19662 0.0913,-0.006 0.17578,-0.0258 0.26821,-0.0314 0.0303,-0.001 0.0648,0.001 0.0962,-7.5e-4 0.7035,-0.0409 1.42441,-0.0443 2.15594,-0.0178 0.0712,0.003 0.14017,-0.005 0.21139,-0.001 0.0913,0.004 0.18941,0.0224 0.28299,0.0288 0.816,0.0455 1.64261,0.11857 2.48779,0.24889 l 0.004,3.8e-4 c 0.55309,0.0849 1.11225,0.18979 1.67709,0.31178 0.17956,0.039 0.36443,0.0905 0.54476,0.13221 0.35193,0.0826 0.70008,0.15949 1.05429,0.25609 0.0345,0.009 0.0701,0.0231 0.10456,0.0322 0.66144,0.18222 1.33046,0.38679 2.00781,0.61826 0.13486,0.0473 0.27352,0.10456 0.41103,0.15305 0.54363,0.19396 1.09104,0.39929 1.64148,0.62583 0.0739,0.0296 0.1451,0.0523 0.21821,0.0818 0.13373,0.0561 0.27087,0.12804 0.40573,0.18562 0.58757,0.25193 1.178551,0.52204 1.773691,0.80995 0.22503,0.1091 0.44892,0.21631 0.6747,0.33034 0.78154,0.39474 1.56572,0.80843 2.35824,1.26757 0.98648,0.56863 1.95705,1.18916 2.92269,1.83166 0.28033,0.18601 0.55537,0.38035 0.83343,0.57279 0.73115,0.50574 1.45472,1.03156 2.17147,1.57746 0.25116,0.19245 0.50498,0.37846 0.75653,0.57545 0.92851,0.7292501 1.8468,1.4850201 2.7488,2.2783001 0.13979,0.12274 0.27466,0.25306 0.41483,0.37731 0.46444,0.41634 0.92851,0.83647 1.38766,1.26796 L 132.71101,3.4709339 c 0.0712,-0.0405 0.14244,-0.0826 0.21366,-0.12236 0.0822,-0.047 0.16934,-0.0792 0.25419,-0.12426 0.4815,-0.26405 0.97625,-0.50385 1.48124,-0.72508 0.0924,-0.0417 0.18032,-0.0951 0.27465,-0.13411 0.0773,-0.0326 0.15911,-0.0523 0.23639,-0.0833 0.58985,-0.23791 1.18992,-0.45536 1.80855,-0.63834 0.0216,-0.007 0.0421,-0.0163 0.0667,-0.0239 0.005,-7.6e-4 0.008,-0.001 0.008,-0.001 0.65424,-0.1898 1.32288,-0.33602 2.00289,-0.4618 0.0792,-0.0144 0.15305,-0.0402 0.22957,-0.0527 0.10569,-0.0186 0.21442,-0.0216 0.32049,-0.0379 0.58984,-0.0943 1.19029,-0.16479001 1.80135,-0.21101001 0.0955,-0.008 0.19017,-0.0276 0.28829,-0.0345 0.0345,-0.001 0.0716,0.001 0.1057,-3.8e-4 0.75349,-0.0443 1.52555,-0.0473 2.30936,-0.0201 0.0739,0.003 0.14547,-0.005 0.222,-0.002 0.0981,0.005 0.20419,0.025 0.30458,0.0311 0.85957,0.0477 1.72975,0.1254 2.62152,0.26026001 0.008,10e-4 0.0189,10e-4 0.0288,0.002 0.003,7.6e-4 0.006,0.002 0.008,0.002 0.10077,0.0151 0.20078,0.039 0.29852,0.0549 0.50234,0.0818 1.00846,0.17199 1.51874,0.28185 0.2167,0.047 0.43869,0.10683 0.65614,0.15835 0.3561,0.0849 0.71145,0.16214 1.07134,0.25988 0.0364,0.01 0.0735,0.0246 0.11062,0.0345 0.70349,0.19283 1.41266,0.40952 2.12979,0.65463 0.11593,0.0405 0.23715,0.0905 0.35421,0.13259 0.6031,0.21139 1.20583,0.43793 1.81688,0.68644 0.0636,0.0261 0.12767,0.0462 0.19321,0.0731 0.13524,0.0561 0.27579,0.12842 0.41027,0.18676 0.66107,0.28109 1.32516,0.58378 1.99683,0.90768 0.23828,0.11517 0.47354,0.22768 0.71145,0.34777 0.85237,0.42922 1.70664,0.88154 2.57113,1.38047 1.22704,0.70917 2.44158,1.48047 3.63907,2.29724 0.40004,0.27238 0.78873,0.57696 1.18574,0.86032 0.791,0.5675 1.58466,1.1368801 2.3624,1.7479401 0.46293,0.36443 0.91223,0.75539 1.36948,1.13498 0.69629,0.57583 1.39183,1.15241 2.07146,1.76233 0.47619,0.42467 0.93912,0.87018 1.40736,1.31 0.43414,0.40952 0.87775,0.79631 1.30659,1.2187 0.25988,0.25572 0.51105,0.52658 0.76676,0.78684 0.24624,0.24927 0.4921,0.50006 0.73834,0.75388 0.97588,1.01678 1.94114,2.05327 2.88065,3.13029 0.008,0.009 0.0155,0.0201 0.0239,0.0303 1.0846,1.24711 2.13965,2.53287 3.1659,3.8531 0.003,0.006 0.008,0.011 0.0136,0.0182 0.91526,1.17817 1.80362,2.384 2.6685,3.61331 0.0428,0.0636 0.0852,0.13145 0.12956,0.19585 0.21972,0.31216 0.42391,0.63531 0.63795,0.9505 0.52166,0.76713 1.04975,1.52972 1.54981,2.3139 0.13259,0.20571 0.25381,0.41861 0.38375,0.62584 0.26253,0.41785 0.51597,0.84138 0.77244,1.26378 0.30458,0.49892 0.61939,0.98913 0.91261,1.49412 0.24624,0.4205 0.47089,0.85085 0.71145,1.27477 0.23828,0.42543 0.47695,0.84896 0.71182,1.2778 0.14851,0.27465 0.30951,0.54324 0.4546,0.8179 0.4368,0.82093 0.84707,1.65133 1.25924,2.48211 0.11933,0.24321 0.24814,0.48187 0.36785,0.7266 0.0322,0.0633 0.0663,0.12615 0.0981,0.19017 0.55044,1.14749 1.08194,2.30292 1.58465,3.46556 0.0606,0.1379 0.111,0.27882 0.17161,0.41785 0.16404,0.38641 0.31481,0.77396 0.47354,1.16302 0.27541,0.66561 0.56295,1.33122 0.82018,2.00175 0.12956,0.33489 0.23828,0.67319 0.36216,1.00921 0.19055,0.51445 0.37277,1.02891 0.55537,1.54488 0.14017,0.40535 0.2989,0.80956 0.43376,1.21605 0.16669,0.49703 0.29928,0.9933 0.45574,1.49071 0.18449,0.58719 0.36709,1.17286 0.53983,1.76005 0.0761,0.27238 0.17161,0.54476 0.24776,0.81752 0.1485,0.53378 0.25723,1.06604 0.39171,1.59943 0.19018,0.74668 0.38338,1.49147 0.55007,2.23587 0.053,0.23791 0.12691,0.47733 0.17767,0.716 0.21972,1.02777 0.41027,2.05251 0.58189,3.07536 0.0261,0.15986 0.0447,0.3186 0.0712,0.47884 0.11592,0.71751 0.22957,1.43578 0.32276,2.14912 0.0871,0.68985 0.16404,1.37781 0.22995,2.06236 0.15343,0.0394 0.30686,0.0792 0.46028,0.12161 0.62924,0.17009 1.27174,0.37921 1.91235,0.58529 0.222,0.0712 0.43945,0.12691 0.66144,0.2023 0.91753,0.31216 1.84378,0.65803 2.7776,1.04482 0.0314,0.0125 0.0633,0.0292 0.0924,0.0424 0.6872,0.28564 1.38804,0.61977 2.08471,0.94708 0.35421,0.16593 0.70311,0.30875 1.06035,0.48604 1.0577,0.52506 2.12677,1.09672 3.20303,1.71876 1.21416,0.70009 2.41203,1.46192 3.60043,2.25519 0.20078,0.13487 0.40232,0.26519 0.6031,0.40119 1.13195,0.7732 2.25329,1.5892 3.36213,2.44157 0.21405,0.16555 0.42543,0.333 0.63947,0.50082 1.12438,0.88457 2.23777,1.79832 3.3307,2.7579 0.0955,0.0841 0.19055,0.17351 0.28564,0.25836 1.0577,0.9361 2.09721,1.90932 3.12423,2.91019 0.10039,0.0993 0.20608,0.18866 0.30648,0.28792 0.064,0.0621 0.12463,0.1288 0.1879,0.19093 0.78532,0.78039 1.56609,1.57518 2.33285,2.39157 0.0375,0.0409 0.0743,0.0841 0.11402,0.12539 0.72471,0.77661 1.44146,1.57064 2.14836,2.37642 0.0655,0.0777 0.13676,0.15002 0.20306,0.22768 0.0867,0.0977 0.16631,0.20532 0.25116,0.3042 1.14559,1.32743 2.26694,2.68781 3.35419,4.08684 0.0318,0.0398 0.0667,0.0769 0.0981,0.11744 0.0822,0.10759 0.15873,0.22238 0.24359,0.32959 0.86488,1.12702 1.71157,2.27413 2.53667,3.441306 0.0822,0.1163 0.17199,0.22806 0.25381,0.34587 0.0398,0.0542 0.0735,0.111 0.11365,0.16593 0.78873,1.13044 1.55511,2.27982 2.30671,3.44321 0.0712,0.11176 0.15078,0.21972 0.22238,0.33186 0.10607,0.16858 0.20646,0.34246 0.31178,0.51142 0.60348,0.9558 1.19294,1.92068 1.76687,2.8958 0.0902,0.15191 0.18828,0.29889 0.27769,0.45194 0.0322,0.0572 0.0636,0.11706 0.0951,0.17389 0.65122,1.11907 1.28084,2.24988 1.89189,3.39017 0.0504,0.0936 0.10304,0.18335 0.15305,0.27768 0.10039,0.18828 0.19055,0.38149 0.29094,0.57128 0.47354,0.90655 0.93648,1.8184 1.38615,2.73555 0.0924,0.19093 0.19586,0.37883 0.28829,0.57128 0.0553,0.11592 0.1057,0.2326 0.15873,0.34739 0.55575,1.16036 1.09256,2.3283 1.60284,3.50193 0.0159,0.0379 0.0341,0.0735 0.0504,0.10986 0.0557,0.12615 0.10266,0.25533 0.15646,0.38148 0.4546,1.05998 0.88836,2.1245 1.30659,3.19356 0.0655,0.17351 0.14509,0.34512 0.21139,0.51786 0.0553,0.1451 0.10077,0.29171 0.1557,0.43718 0.47884,1.26302 0.9395,2.52795 1.36266,3.79779 0.008,0.0239 0.0186,0.0485 0.0265,0.0716 0.0239,0.075 0.0447,0.1504 0.0689,0.22541 0.43377,1.31 0.83003,2.6219 1.20052,3.93417 0.0481,0.16404 0.10608,0.32807 0.15078,0.49059 0.0239,0.0905 0.0394,0.17995 0.0667,0.26935 0.41748,1.52366 0.7876,3.04619 1.11832,4.56569 0.0292,0.13335 0.0689,0.26821 0.0981,0.4027 0.0421,0.19699 0.0735,0.39323 0.11365,0.59098 0.12463,0.59969 0.23563,1.19711 0.34398,1.7949 0.0761,0.4118 0.15342,0.82472 0.22237,1.23538 0.10039,0.61522 0.19055,1.22628 0.27503,1.83885 0.042,0.29056 0.0955,0.58151 0.13221,0.8698 0.0106,0.0765 0.0136,0.15191 0.0212,0.22806 0.16706,1.31341 0.29397,2.61811 0.38641,3.91561 0.0189,0.27617 0.0322,0.55082 0.0508,0.8251 0.0765,1.33273 0.12994,2.65864 0.12388,3.96713 -0.0394,14.38502 -5.11878,24.5097 -13.31104,29.26935 l -24.96657,14.5108 c 8.19187,-4.76041 13.2705,-14.88508 13.31028,-29.27011 0.006,-1.30887 -0.0474,-2.63516 -0.12464,-3.96638 -0.0186,-0.27579 -0.0314,-0.55044 -0.0527,-0.82623 -0.0924,-1.29674 -0.21708,-2.6022 -0.38338,-3.91561 -0.0451,-0.3652 -0.1038,-0.73266 -0.15381,-1.09975 -0.0868,-0.6103 -0.17464,-1.22136 -0.2773,-1.83355 -0.0689,-0.41482 -0.14358,-0.83002 -0.21973,-1.24598 -0.10834,-0.59363 -0.22199,-1.1884 -0.3436,-1.78506 -0.0686,-0.33186 -0.14017,-0.66447 -0.21442,-0.99747 -0.32769,-1.51836 -0.70084,-3.03937 -1.11831,-4.56228 -0.069,-0.25457 -0.1432,-0.50952 -0.2148,-0.76334 -0.37277,-1.31493 -0.76903,-2.62872 -1.20317,-3.94062 -0.0322,-0.0958 -0.0614,-0.19093 -0.0928,-0.28602 -0.42354,-1.26984 -0.88382,-2.53704 -1.36229,-3.80044 -0.1216,-0.31898 -0.24396,-0.63682 -0.36784,-0.95428 -0.41823,-1.07172 -0.85465,-2.13889 -1.30887,-3.20227 -0.069,-0.15949 -0.13259,-0.32087 -0.20419,-0.48036 -0.51029,-1.17628 -1.04974,-2.34535 -1.60587,-3.50875 -0.14509,-0.30382 -0.29322,-0.60651 -0.44134,-0.9092 -0.45233,-0.92132 -0.91526,-1.83809 -1.39372,-2.74843 -0.14586,-0.27957 -0.29133,-0.56067 -0.43945,-0.83987 -0.61106,-1.1399 -1.23765,-2.27072 -1.89075,-3.38979 -0.12237,-0.21328 -0.25193,-0.42316 -0.37618,-0.6353 -0.57393,-0.97209 -1.1634,-1.93432 -1.76423,-2.88822 -0.18032,-0.28223 -0.35648,-0.56408 -0.53642,-0.84442 -0.74933,-1.16339 -1.51609,-2.31315 -2.30709,-3.44359 -0.11858,-0.17161 -0.24321,-0.33981 -0.36482,-0.51028 -0.8251,-1.16681 -1.66876,-2.31391 -2.53666,-3.4398 -0.11403,-0.14964 -0.22768,-0.30269 -0.34133,-0.45233 -1.08952,-1.39903 -2.21124,-2.75866 -3.35608,-4.08608 -0.15342,-0.17578 -0.30192,-0.35497 -0.45497,-0.52999 -0.70122,-0.80161 -1.41267,-1.58996 -2.13472,-2.36164 -0.0421,-0.047 -0.0849,-0.0951 -0.12729,-0.14169 -0.76676,-0.81524 -1.54488,-1.6089 -2.33058,-2.38853 -0.16403,-0.16366 -0.33299,-0.32163 -0.49968,-0.48377 -1.0236,-0.998606 -2.06047,-1.969166 -3.11627,-2.903746 -0.0943,-0.0868 -0.19245,-0.17692 -0.29057,-0.26291 -1.09293,-0.95807 -2.20329,-1.87106 -3.32728,-2.75449 -0.2148,-0.16821 -0.42884,-0.3383 -0.64288,-0.50347 -1.10847,-0.85162 -2.22754,-1.66762 -3.35949,-2.44082 -0.20116,-0.13638 -0.40232,-0.26708 -0.6031,-0.40081 -1.19067,-0.79289 -2.38627,-1.55586 -3.60042,-2.25632 -1.07627,-0.62167 -2.14495,-1.19219 -3.20303,-1.71801 -0.35686,-0.17767 -0.70615,-0.31935 -1.06035,-0.48604 -0.69668,-0.32655 -1.39714,-0.66068 -2.08472,-0.94708 -0.96602,-0.40194 -1.92295,-0.76486 -2.87003,-1.08611 -0.22276,-0.0765 -0.44172,-0.13184 -0.66145,-0.20268 -0.7963,-0.25722 -1.59185,-0.5065 -2.373,-0.70766 -0.13221,-1.39334 -0.32466,-2.80033 -0.55234,-4.21072 -0.0269,-0.16062 -0.0447,-0.31973 -0.0739,-0.47884 -0.20912,-1.26 -0.47316,-2.52568 -0.75691,-3.79249 -0.16631,-0.74252 -0.35951,-1.48654 -0.54969,-2.23133 -0.20419,-0.80805 -0.41027,-1.61572 -0.64325,-2.42339 -0.16896,-0.58492 -0.35156,-1.16794 -0.53416,-1.75286 -0.28298,-0.90579 -0.57847,-1.81157 -0.89366,-2.71509 -0.18033,-0.51256 -0.36254,-1.02512 -0.5531,-1.53806 -0.37542,-1.01035 -0.76903,-2.01652 -1.18499,-3.02119 -0.15911,-0.38451 -0.30685,-0.77054 -0.47088,-1.15392 -0.58682,-1.36797 -1.20052,-2.72797 -1.85401,-4.07434 -0.11895,-0.24662 -0.25117,-0.4887 -0.37353,-0.73456 -0.54665,-1.10657 -1.11831,-2.20556 -1.70853,-3.29243 -0.23526,-0.42922 -0.47354,-0.85427 -0.7141,-1.27932 -0.52393,-0.93193 -1.06604,-1.85363 -1.62103,-2.76699 -0.25722,-0.4224 -0.51104,-0.84669 -0.77281,-1.26492 -0.62697,-0.99444 -1.27478,-1.97107 -1.93357,-2.93974 -0.21366,-0.31519 -0.4205,-0.63947 -0.63719,-0.95163 -0.90996,-1.30281 -1.84643,-2.58174 -2.81511,-3.82772 -1.0236,-1.3191 -2.08168,-2.60524 -3.16363,-3.85235 -0.9467,-1.08725 -1.91992,-2.1351 -2.90678,-3.16098 -0.24397,-0.25268 -0.48945,-0.50309 -0.73569,-0.7516 -0.67963,-0.68986 -1.37819,-1.34978 -2.07562,-2.00706 -0.46597,-0.43982 -0.93155,-0.88381 -1.40471,-1.30886 -0.68266,-0.60954 -1.37554,-1.18651 -2.07184,-1.76271 -0.45725,-0.37883 -0.9073,-0.77055 -1.36948,-1.13498 -0.77774,-0.61106 -1.57102,-1.17969 -2.36202,-1.74718 -0.39739,-0.28412 -0.78532,-0.5887 -1.18499,-0.86108 -1.20165,-0.81677 -2.41316,-1.58845 -3.6402,-2.29724 -0.86487,-0.49893 -1.72179,-0.95049 -2.57113,-1.37933 -0.24056,-0.12047 -0.47582,-0.23374 -0.71145,-0.34891 -0.67167,-0.32352 -1.33576,-0.62659 -1.99834,-0.90768 -0.20078,-0.0852 -0.40308,-0.17805 -0.60424,-0.25988 -0.60878,-0.24813 -1.21188,-0.47354 -1.81195,-0.68531 -0.11896,-0.0421 -0.24094,-0.0932 -0.35952,-0.13335 -0.71713,-0.24472 -1.42592,-0.46104 -2.12828,-0.655 -0.39853,-0.1091 -0.78986,-0.20116 -1.18385,-0.29435 -0.21707,-0.0519 -0.43793,-0.11251 -0.65348,-0.15873 -0.51219,-0.10986 -1.01755,-0.20002 -1.51988,-0.28261 -0.0992,-0.0159 -0.19964,-0.0394 -0.29738,-0.0542 -0.0136,-10e-4 -0.0269,-0.003 -0.0398,-0.005 -0.89026,-0.13486 -1.76044,-0.21215 -2.61925,-0.26064 -0.17691,-0.009 -0.35421,-0.022 -0.52885,-0.0276 -0.69061,-0.025 -1.36758,-0.0148 -2.03774,0.0163 0.0303,0.0296 0.0568,0.0598 0.086,0.0887 0.32807,0.33147 0.65348,0.66333 0.97587,1.00201 0.36481,0.38375 0.72508,0.77357 1.0846,1.16718 0.31746,0.34777 0.63492,0.69478 0.94708,1.04937 0.12956,0.14736 0.26442,0.28753 0.39285,0.43603 0.42164,0.48604 0.83949,0.97777 1.25393,1.47745 l -24.967711,14.50928 c -0.54097,-0.65045 -1.09369,-1.28576 -1.64943,-1.915 -0.31216,-0.3542 -0.62697,-0.70122 -0.94443,-1.04709 -0.36179,-0.39133 -0.7213,-0.78115 -1.0865,-1.16415"
     inkscape:connector-curvature="0"
     style="fill:#2e303e;stroke-width:0.37883246;fill-opacity:1" />
  <path
     id="path186"
     d="m 136.16806,20.763844 c -19.38599,-11.1914601 -35.59169,-4.65509 -39.292121,14.29487 -5.27335,-6.36249 -11.31762,-11.72714 -17.76383,-15.44879 -20.56076,-11.8710901 -37.28469,-2.34043 -37.35251,21.28508 -0.002,0.58454 0.0201,1.18234 0.0398,1.78051 -3.52314,-3.68679 -7.35351,-6.81027 -11.39111,-9.1416 C 13.671089,23.871034 0.05357895,31.629524 1.6894781e-4,50.862844 -0.05513105,70.109044 13.472209,93.538694 30.210919,103.20157 l 157.471931,90.916 c 25.20865,14.55437 45.69743,2.86398 45.78001,-26.08943 0.0822,-28.96629 -20.27549,-64.22839 -45.48376,-78.782366 -4.23989,-2.44878 -8.34795,-4.14292 -12.25258,-5.14834 -2.29875,-24.14526 -19.10035,-51.52121 -39.55844,-63.33359"
     inkscape:connector-curvature="0"
     style="fill:#ffffff;stroke-width:0.37883246" />
  <defs
     id="defs82">
    <linearGradient
       id="grad0"
       x1="48.795341"
       y1="1225.614"
       x2="428.85321"
       y2="1222.6327">
      <stop
         offset="0.0%"
         style="stop-color:rgb(255,255,255); stop-opacity:1.0"
         id="stop77" />
      <stop
         offset="100.0%"
         style="stop-color:rgb(0,0,0); stop-opacity:1.0"
         id="stop79" />
    </linearGradient>
  </defs>
  <polygon
     id="polygon92"
     points="399.818,1225.436 410.378,1234.989 403.515,1259.604 392.958,1250.053 "
     style="fill:#b3b3b3"
     transform="matrix(0.37883245,0,0,0.37883245,-97.865919,-71.251299)" />
  <polygon
     id="polygon94"
     points="408.874,1192.939 419.435,1202.491 411.346,1231.513 400.785,1221.962 "
     style="fill:#b3b3b3"
     transform="matrix(0.37883245,0,0,0.37883245,-97.865919,-71.251299)" />
  <polygon
     id="polygon96"
     points="417.934,1160.443 428.495,1169.995 420.405,1199.018 409.841,1189.469 "
     style="fill:#b3b3b3"
     transform="matrix(0.37883245,0,0,0.37883245,-97.865919,-71.251299)" />
  <polygon
     id="polygon98"
     points="426.99,1127.95 437.551,1137.502 429.461,1166.521 418.904,1156.974 "
     style="fill:#b3b3b3"
     transform="matrix(0.37883245,0,0,0.37883245,-97.865919,-71.251299)" />
  <polygon
     id="polygon100"
     points="436.053,1095.455 446.61,1105.007 438.518,1134.028 427.961,1124.477 "
     style="fill:#b3b3b3"
     transform="matrix(0.37883245,0,0,0.37883245,-97.865919,-71.251299)" />
  <polygon
     id="polygon102"
     points="445.109,1062.959 455.667,1072.51 447.577,1101.533 437.017,1091.981 "
     style="fill:#b3b3b3"
     transform="matrix(0.37883245,0,0,0.37883245,-97.865919,-71.251299)" />
  <polygon
     id="polygon104"
     points="454.166,1030.466 464.729,1040.018 456.638,1069.036 446.077,1059.488 "
     style="fill:#b3b3b3"
     transform="matrix(0.37883245,0,0,0.37883245,-97.865919,-71.251299)" />
  <polygon
     id="polygon106"
     points="463.225,997.971 473.786,1007.521 465.693,1036.544 455.136,1026.992 "
     style="fill:#b3b3b3"
     transform="matrix(0.37883245,0,0,0.37883245,-97.865919,-71.251299)" />
  <polygon
     id="polygon108"
     points="400.785,1221.962 411.346,1231.513 337.242,1274.299 326.681,1264.746 "
     style="fill:#dbdada"
     transform="matrix(0.37883245,0,0,0.37883245,-97.865919,-71.251299)" />
  <polygon
     id="polygon110"
     points="335.74,1232.253 409.841,1189.469 420.405,1199.021 346.301,1241.803 "
     style="fill:#dbdada"
     transform="matrix(0.37883245,0,0,0.37883245,-97.865919,-71.251299)" />
  <polygon
     id="polygon112"
     points="344.8,1199.758 418.904,1156.974 429.461,1166.524 355.357,1209.307 "
     style="fill:#dbdada"
     transform="matrix(0.37883245,0,0,0.37883245,-97.865919,-71.251299)" />
  <polygon
     id="polygon114"
     points="353.856,1167.261 427.961,1124.477 438.518,1134.028 364.417,1176.813 "
     style="fill:#dbdada"
     transform="matrix(0.37883245,0,0,0.37883245,-97.865919,-71.251299)" />
  <polygon
     id="polygon116"
     points="362.912,1134.766 437.017,1091.981 447.577,1101.535 373.476,1144.317 "
     style="fill:#dbdada"
     transform="matrix(0.37883245,0,0,0.37883245,-97.865919,-71.251299)" />
  <polygon
     id="polygon118"
     points="371.976,1102.27 446.077,1059.488 456.638,1069.04 382.532,1111.82 "
     style="fill:#dbdada"
     transform="matrix(0.37883245,0,0,0.37883245,-97.865919,-71.251299)" />
  <polygon
     id="polygon120"
     points="381.032,1069.773 455.136,1026.992 465.693,1036.544 391.589,1079.328 "
     style="fill:#dbdada"
     transform="matrix(0.37883245,0,0,0.37883245,-97.865919,-71.251299)" />
  <polygon
     id="polygon122"
     points="390.088,1037.281 464.192,994.497 474.753,1004.047 400.649,1046.832 "
     style="fill:#dbdada"
     transform="matrix(0.37883245,0,0,0.37883245,-97.865919,-71.251299)" />
  <polygon
     id="polygon124"
     points="399.147,1004.788 473.251,962.004 483.813,971.556 409.708,1014.336 "
     style="fill:#dbdada"
     transform="matrix(0.37883245,0,0,0.37883245,-97.865919,-71.251299)" />
  <path
     id="path126"
     d="m 60.775859,300.70193 28.073,-16.20797 2.50635,-8.99272 1.38463,-0.7982 -2.50787,8.9931 -0.36481,1.31455 -3.06589,10.99409 -0.36785,1.31645 -3.06437,10.99447 -0.36634,1.31645 -3.06551,10.99485 -0.36519,1.31455 -3.06589,10.99561 -0.36633,1.31493 -3.0659,10.99447 -0.36595,1.31569 -3.06475,10.99485 -0.36633,1.31455 -3.06552,10.99561 -0.36633,1.31493 -3.06437,10.99448 -0.36747,1.31606 -3.06437,10.99448 -0.36634,1.31606 -2.6003,9.32572 -1.38312,0.7982 2.59993,-9.32458 -28.073,16.20645 -2.55257,9.15865 -1.3835,0.79706 36.35655,-130.42481 1.38463,-0.79858 z m -27.45172,98.48204 28.07187,-16.20835 3.06589,-10.99447 -28.073,16.20834 -3.06476,10.99448 m 6.86293,-24.62032 28.07186,-16.20835 3.0659,-10.99409 -28.073,16.20645 -3.06476,10.99599 m -3.43222,12.30978 28.073,-16.20721 3.06589,-10.99561 -28.07338,16.20872 -3.06551,10.9941 m 6.86406,-24.62032 28.07187,-16.20721 3.06437,-10.99561 -28.07186,16.20683 -3.06438,10.99599 m 10.29402,-36.93048 28.07186,-16.20835 3.06589,-10.99409 -28.073,16.20796 -3.06475,10.99448 m -3.43222,12.31054 28.073,-16.20797 3.06589,-10.99448 -28.073,16.20797 -3.06589,10.99448 m -20.58841,73.86134 28.073,-16.20873 3.06437,-10.99409 -28.073,16.20834 -3.06437,10.99448 m 27.45247,-98.48242 28.073,-16.20797 3.06476,-10.9941 -28.07225,16.20797 -3.06551,10.9941 m -10.29515,36.9301 28.07338,-16.20645 3.06551,-10.99448 -28.073,16.20684 -3.06589,10.99409"
     inkscape:connector-curvature="0"
     style="fill:#9c9c9b;stroke-width:0.37883246" />
  <polygon
     id="polygon128"
     points="662.22,1408.435 651.636,1405.477 645.037,1372.907 655.628,1375.862 "
     style="fill:#c7c6c6"
     transform="matrix(0.37883245,0,0,0.37883245,-97.865919,-71.251299)" />
  <polygon
     id="polygon130"
     points="654.7,1371.269 644.109,1368.313 636.335,1329.913 646.929,1332.868 "
     style="fill:#c7c6c6"
     transform="matrix(0.37883245,0,0,0.37883245,-97.865919,-71.251299)" />
  <polygon
     id="polygon132"
     points="646,1328.271 635.408,1325.319 627.637,1286.919 638.229,1289.873 "
     style="fill:#c7c6c6"
     transform="matrix(0.37883245,0,0,0.37883245,-97.865919,-71.251299)" />
  <polygon
     id="polygon134"
     points="637.301,1285.278 626.708,1282.326 618.937,1243.926 629.53,1246.879 "
     style="fill:#c7c6c6"
     transform="matrix(0.37883245,0,0,0.37883245,-97.865919,-71.251299)" />
  <polygon
     id="polygon136"
     points="628.601,1242.284 618.007,1239.331 610.237,1200.932 620.828,1203.885 "
     style="fill:#c7c6c6"
     transform="matrix(0.37883245,0,0,0.37883245,-97.865919,-71.251299)" />
  <polygon
     id="polygon138"
     points="619.9,1199.29 609.309,1196.337 601.536,1157.933 612.128,1160.892 "
     style="fill:#c7c6c6"
     transform="matrix(0.37883245,0,0,0.37883245,-97.865919,-71.251299)" />
  <polygon
     id="polygon140"
     points="611.2,1156.292 600.607,1153.343 592.836,1114.939 603.429,1117.894 "
     style="fill:#c7c6c6"
     transform="matrix(0.37883245,0,0,0.37883245,-97.865919,-71.251299)" />
  <polygon
     id="polygon142"
     points="602.498,1113.301 591.904,1110.346 584.136,1071.945 594.725,1074.901 "
     style="fill:#c7c6c6"
     transform="matrix(0.37883245,0,0,0.37883245,-97.865919,-71.251299)" />
  <polygon
     id="polygon144"
     points="593.796,1070.308 583.204,1067.35 575.436,1028.951 586.025,1031.903 "
     style="fill:#c7c6c6"
     transform="matrix(0.37883245,0,0,0.37883245,-97.865919,-71.251299)" />
  <polygon
     id="polygon146"
     points="585.096,1027.31 574.504,1024.358 566.732,985.956 577.325,988.91 "
     style="fill:#c7c6c6"
     transform="matrix(0.37883245,0,0,0.37883245,-97.865919,-71.251299)" />
  <polygon
     id="polygon148"
     points="570.039,952.907 576.396,984.316 565.804,981.365 559.447,949.955 "
     style="fill:#c7c6c6"
     transform="matrix(0.37883245,0,0,0.37883245,-97.865919,-71.251299)" />
  <polygon
     id="polygon150"
     points="654.7,1371.269 580.596,1414.053 570.003,1411.098 644.109,1368.313 "
     style="fill:#dbdada"
     transform="matrix(0.37883245,0,0,0.37883245,-97.865919,-71.251299)" />
  <polygon
     id="polygon152"
     points="646,1328.271 571.896,1371.059 561.304,1368.104 635.408,1325.319 "
     style="fill:#dbdada"
     transform="matrix(0.37883245,0,0,0.37883245,-97.865919,-71.251299)" />
  <polygon
     id="polygon154"
     points="637.301,1285.278 563.196,1328.063 552.603,1325.106 626.708,1282.326 "
     style="fill:#dbdada"
     transform="matrix(0.37883245,0,0,0.37883245,-97.865919,-71.251299)" />
  <polygon
     id="polygon156"
     points="628.601,1242.284 554.496,1285.068 543.904,1282.116 618.007,1239.331 "
     style="fill:#dbdada"
     transform="matrix(0.37883245,0,0,0.37883245,-97.865919,-71.251299)" />
  <polygon
     id="polygon158"
     points="619.9,1199.29 545.796,1242.072 535.203,1239.117 609.309,1196.337 "
     style="fill:#dbdada"
     transform="matrix(0.37883245,0,0,0.37883245,-97.865919,-71.251299)" />
  <polygon
     id="polygon160"
     points="611.2,1156.292 537.096,1199.078 526.503,1196.123 600.607,1153.343 "
     style="fill:#dbdada"
     transform="matrix(0.37883245,0,0,0.37883245,-97.865919,-71.251299)" />
  <polygon
     id="polygon162"
     points="602.498,1113.301 528.396,1156.082 517.803,1153.13 591.904,1110.346 "
     style="fill:#dbdada"
     transform="matrix(0.37883245,0,0,0.37883245,-97.865919,-71.251299)" />
  <polygon
     id="polygon164"
     points="593.796,1070.308 519.696,1113.088 509.104,1110.136 583.204,1067.35 "
     style="fill:#dbdada"
     transform="matrix(0.37883245,0,0,0.37883245,-97.865919,-71.251299)" />
  <polygon
     id="polygon166"
     points="585.096,1027.31 510.992,1070.094 500.403,1067.142 574.504,1024.358 "
     style="fill:#dbdada"
     transform="matrix(0.37883245,0,0,0.37883245,-97.865919,-71.251299)" />
  <polygon
     id="polygon168"
     points="491.699,1024.146 565.804,981.361 576.392,984.316 502.288,1027.101 "
     style="fill:#dbdada"
     transform="matrix(0.37883245,0,0,0.37883245,-97.865919,-71.251299)" />
  <polygon
     id="polygon170"
     points="411.293,950.217 492.164,997.211 573.572,950.214 492.701,903.218 "
     style="fill:#dbdada"
     transform="matrix(0.37883245,0,0,0.37883245,-97.865919,-71.251299)" />
  <path
     id="path172"
     d="m 92.417079,317.84789 28.073001,-16.20797 -2.4071,-11.89989 1.38349,-0.79706 2.40824,11.89799 0.35194,1.74036 2.9439,14.54716 0.35308,1.74074 2.9439,14.54678 0.35194,1.74188 2.94466,14.54716 0.35156,1.73922 2.94391,14.5483 0.35231,1.74036 2.94391,14.54717 0.35231,1.74035 2.94391,14.54717 0.35193,1.74111 2.94429,14.54641 0.35194,1.74112 2.9439,14.5464 0.35156,1.74074 2.94391,14.54679 0.35231,1.74073 2.49726,12.3382 -1.38349,0.79895 -2.49727,-12.33819 -28.073,16.20797 2.45181,12.1162 -1.38312,0.7982 -34.921531,-172.56804 1.38349,-0.7982 z m 26.369771,130.30245 28.073,-16.20949 -2.94391,-14.5464 -28.073,16.20834 2.94391,14.54755 m -6.59169,-32.57618 28.07338,-16.20797 -2.94466,-14.54679 -28.07262,16.20683 2.9439,14.54793 m 3.29585,16.2879 28.07338,-16.20797 -2.94391,-14.54679 -28.07338,16.20797 2.94391,14.54679 m -6.59169,-32.57543 28.073,-16.20796 -2.94391,-14.54641 -28.073,16.20797 2.94391,14.5464 m -9.887531,-48.86256 28.071871,-16.20797 -2.94391,-14.54868 -28.071861,16.20872 2.9439,14.54793 m 3.295851,16.286 28.07224,-16.20683 -2.94429,-14.54678 -28.073001,16.20721 2.945051,14.5464 m 19.77354,97.72779 28.07413,-16.20797 -2.9439,-14.54716 -28.07338,16.20796 2.94315,14.54717 m -26.366741,-130.30283 28.073001,-16.20797 -2.94391,-14.54679 -28.073001,16.20835 2.94391,14.54641 m 9.889041,48.86332 28.073,-16.20872 -2.94391,-14.54527 -28.073,16.20645 2.94391,14.54754"
     inkscape:connector-curvature="0"
     style="fill:#b3b3b3;stroke-width:0.37883246" />
  <polygon
     id="polygon174"
     points="492.164,997.211 492.199,1009.885 573.607,962.884 573.572,950.214 "
     style="fill:#b3b3b3"
     transform="matrix(0.37883245,0,0,0.37883245,-97.865919,-71.251299)" />
  <polygon
     id="polygon176"
     points="421.854,959.769 411.293,950.217 315.32,1294.502 325.884,1304.05 "
     style="fill:#c7c6c6"
     transform="matrix(0.37883245,0,0,0.37883245,-97.865919,-71.251299)" />
  <polygon
     id="polygon178"
     points="492.164,997.211 481.575,994.259 573.753,1449.785 584.346,1452.737 "
     style="fill:#c7c6c6"
     transform="matrix(0.37883245,0,0,0.37883245,-97.865919,-71.251299)" />
  <polygon
     id="polygon180"
     points="411.293,950.217 411.329,962.89 492.199,1009.885 492.164,997.211 "
     style="fill:#c7c6c6"
     transform="matrix(0.37883245,0,0,0.37883245,-97.865919,-71.251299)" />
  <path
     id="path182"
     d="m 75.305599,150.28309 3.87507,-6.59054 c 0.8198,-3.83417 2.89239,-20.62251 4.0323,-21.86583 1.1399,-1.24371 4.37362,-5.7003 5.5139,-8.18733 1.14029,-2.48704 4.33006,0.62166 4.12359,3.73074 -0.20911,3.10946 -1.96008,9.38898 -4.69638,10.11445 -0.97171,5.59649 -1.62519,21.28697 -3.17954,23.77325 -1.55359,2.48666 -9.66894,-0.97474 -9.66894,-0.97474"
     inkscape:connector-curvature="0"
     style="fill:#f1b8b8;stroke-width:0.37883246" />
  <path
     id="path188"
     d="m 104.02413,172.1834 c 0,0 9.34541,-3.51519 10.07126,-4.75889 0.72622,-1.24409 7.77288,-16.4777 9.53445,-18.23965 1.76157,-1.76081 0.62167,-3.52352 4.86952,-4.14481 4.25125,-0.62242 6.32195,-4.76722 7.20349,-3.52314 0.88079,1.24295 1.34903,5.44041 -3.10869,8.18657 -3.10908,1.81309 -4.24899,2.17639 -4.24899,2.17639 0,0 -7.77288,19.89742 -9.58598,21.29607 -1.81347,1.39941 -10.89408,6.63146 -10.89408,6.63146 z"
     inkscape:connector-curvature="0"
     style="fill:#f1b8b8;stroke-width:0.37883246" />
  <path
     id="path190"
     d="m 77.871429,274.1829 c 0,0 3.93076,-1.97258 4.62895,0.32011 0.69933,2.29308 0.1163,4.66343 -1.74831,5.5571 -1.86499,0.89366 -3.76938,2.29383 -4.35278,3.34243 -0.58341,1.04975 -2.4878,4.18686 -6.25718,2.52038 -2.29345,-1.11983 -1.67217,-5.20175 -1.35925,-6.21172 0.30913,-1.01072 1.06035,-4.10957 1.15051,-5.31919 5.22259,0.15002 7.93806,-0.20911 7.93806,-0.20911"
     inkscape:connector-curvature="0"
     style="fill:#ee9f4b;stroke-width:0.37883246" />
  <path
     id="path192"
     d="m 69.956859,206.23589 c 0,0 2.78934,21.08847 2.32224,37.5654 -1.3994,14.30282 -3.03141,29.76866 -3.03141,29.76866 0,0 2.72191,4.35203 8.31651,1.94455 3.18787,-13.91414 8.54949,-35.44281 8.54949,-43.73394 v -8.29037 z"
     inkscape:connector-curvature="0"
     style="fill:#3d3e51;stroke-width:0.37883246" />
  <path
     id="path194"
     d="m 94.393069,286.79234 c 0,0 0.27124,2.81586 4.77859,3.17764 4.508491,0.36217 7.617571,0.15495 7.722501,3.2125 0.10304,3.05832 -3.00641,4.61229 -4.97558,4.81951 -1.967661,0.20836 -4.145191,-0.4152 -6.631471,0.41406 -2.48741,0.82927 -8.4472,2.02145 -10.00117,-1.03535 -0.82889,-1.91765 1.11604,-8.06875 1.56836,-11.18502 z"
     inkscape:connector-curvature="0"
     style="fill:#ee9f4b;stroke-width:0.37883246" />
  <path
     id="path196"
     d="m 69.956859,206.23589 c 0,0 -0.73418,12.59088 6.31287,15.38817 l 7.04666,2.79882 c 0,0 2.17563,20.82934 2.28019,24.45742 0.10266,3.62656 0,36.16751 0,36.16751 2.69426,3.42048 9.11888,2.59084 10.0527,0.72547 1.96803,-28.29083 4.798671,-64.4144 2.24458,-76.0438 z"
     inkscape:connector-curvature="0"
     style="fill:#454a64;stroke-width:0.37883246" />
  <path
     id="path198"
     d="m 83.161819,170.83172 c 3.10832,1.82673 6.83907,3.43298 10.15499,3.32881 3.31667,-0.1038 6.789811,-1.19219 9.585971,-2.53856 2.4878,0.98458 5.33775,3.67846 4.92255,9.27458 -2.53931,1.19218 -10.725121,4.45658 -10.882341,5.18204 -0.15343,0.72623 -0.25761,14.35283 0.46824,16.52998 0.72508,2.17601 2.941251,6.42462 -1.89682,9.48142 -4.84072,3.05755 -14.11454,1.1399 -17.01601,0 -2.90186,-1.13953 -8.60253,-4.24861 -9.06774,-7.14971 -0.46672,-2.90185 -0.62166,-20.00159 -1.45244,-23.62891 -0.82813,-3.62695 -1.65815,-10.62247 -0.41406,-14.45625 1.24484,-3.83492 3.64512,-8.6048 3.64512,-8.6048 z"
     inkscape:connector-curvature="0"
     style="fill:#dbdada;stroke-width:0.37883246" />
  <path
     id="path200"
     d="m 79.120059,168.29241 c 0.0951,-0.0515 0.18222,-0.0989 0.27087,-0.14623 l -2.95338,-11.27898 10.09702,-6.1511 c 0,0 2.96133,2.65221 3.97168,6.63677 1.32099,3.089 4.31301,7.17016 -2.17564,10.78384 -1.94416,1.08801 -2.21541,4.19746 -2.21541,4.19746 l 0.71827,0.36634 c 0.12691,0.68303 -2.24686,1.92712 -5.12333,1.25279 -2.87572,-0.67356 -6.19581,-3.57276 -2.59008,-5.66089"
     inkscape:connector-curvature="0"
     style="fill:#f1b8b8;stroke-width:0.37883246" />
  <path
     id="path202"
     d="m 86.464489,161.72459 -2.3321,-1.78695 c 0,0 -2.40975,-0.38906 -2.91473,1.47631 -0.19321,1.20469 1.01034,1.94265 2.09911,2.09873 -0.0784,3.18712 -1.82635,4.97407 -4.19671,4.77973 -1.51571,-0.73872 -8.39606,-3.45836 -7.6562,-9.13213 -0.70009,-1.94266 -1.41532,-6.80118 7.4736,-10.95887 2.90186,-1.16605 5.11841,-2.44877 6.86672,-1.43767 2.52643,2.02031 0.15646,5.59574 -1.55511,7.15008 -0.97057,0.93231 0.70122,4.85777 3.03142,6.68412 z"
     inkscape:connector-curvature="0"
     style="fill:#3d374b;stroke-width:0.37883246" />
  <g
     id="g982"
     transform="matrix(0.10520335,0.06555939,0,0.11346715,131.38307,88.923384)">
    <g
       style="fill:#000000;fill-opacity:1;stroke-linejoin:miter"
       id="g611"
       transform="translate(-516.18858,-554.13547)">
      <path
         style="fill:#000000"
         d="m 623.3333,570.7566 c -0.3158,-16.6122 -0.6173,-32.3055 -0.6172,-47.48756 0,-11.89419 -9.64005,-21.53704 -21.53714,-21.53711 -92.1063,7e-5 -162.23346,-26.47033 -220.68756,-83.30487 -8.3622,-8.13241 -21.669,-8.12954 -30.02823,-6e-5 -58.44849,56.83463 -128.5642,83.30506 -220.66486,83.30506 -11.89416,0 -21.53695,9.64284 -21.53695,21.53704 -1e-5,15.18494 -0.29868,30.884 -0.61745,47.499 -2.95204,154.59506 -6.99535,366.32034 250.77873,455.6698 2.28576,0.7927 4.66919,1.1889 7.05261,1.1889 2.38348,0 4.76978,-0.3962 7.05261,-1.1889 C 630.3222,937.0855 626.2851,725.3545 623.3333,570.7566 Z M 365.47812,983.2347 C 144.403,902.9251 147.74564,726.9971 150.71208,571.5893 c 0.17807,-9.3269 0.35039,-18.3666 0.47098,-27.2284 86.26268,-3.6413 155.24414,-29.7813 214.29558,-81.22317 59.05722,51.44177 128.05011,77.5848 214.31856,81.22311 0.1206,8.85886 0.2928,17.89286 0.4708,27.21406 2.9634,155.4135 6.3026,331.3472 -214.78988,411.6598 z"
         id="path609"
         inkscape:connector-curvature="0" />
    </g>
    <g
       style="fill:#000000;fill-opacity:1;stroke-linejoin:miter"
       id="g615"
       transform="translate(-516.18858,-554.13547)">
      <path
         style="fill:#000000"
         d="m 435.66727,652.5823 1.3e-4,-49.63845 c 2e-5,-38.6969 -31.48194,-70.17871 -70.17887,-70.17871 -38.69709,0 -70.17903,31.48196 -70.17903,70.17866 v 49.6387 l -47.92708,7.5e-4 -2.2e-4,212.24665 236.21186,5.4e-4 2.4e-4,-212.24814 -47.92703,8e-4 z M 315.8497,602.9438 c 6e-5,-27.3709 22.26755,-49.6386 49.63876,-49.6386 27.37116,0 49.63864,22.2676 49.63864,49.6385 l -1.2e-4,49.6386 -99.27731,8e-4 z m 147.20416,241.3459 -195.13153,6.4e-4 1.7e-4,-171.16778 195.1317,6.1e-4 z"
         id="path613"
         inkscape:connector-curvature="0" />
    </g>
    <g
       style="fill:#000000;fill-opacity:1;stroke-linejoin:miter"
       id="g619"
       transform="translate(-516.18858,-554.13547)">
      <path
         style="fill:#000000"
         d="m 387.57327,760.4657 -0.2016,2.9967 q -1.43335,9.0565 -8.38794,14.4864 -7.00273,5.42535 -16.49237,4.39983 -9.05664,-1.43333 -14.48651,-8.38757 -1.73975,-2.24806 -2.86609,-4.89893 l -0.94662,-2.7254 q -0.78014,-2.81303 -0.78894,-5.87103 0.23688,-9.38465 6.46857,-15.6162 6.23173,-6.23164 15.61648,-6.46846 9.3848,0.23682 15.61649,6.46846 6.23169,6.23155 6.46853,15.6162"
         id="path617"
         inkscape:connector-curvature="0" />
    </g>
    <g
       style="fill:#000000;fill-opacity:1;stroke-linejoin:miter"
       id="g623"
       transform="translate(-516.18858,-554.13547)">
      <path
         style="fill:#000000"
         d="m 355.4116,766.59827 10.07665,1.3e-4 10.07665,2.3e-4 q -5e-5,25.43437 -5e-5,50.86887 -10.07665,2e-4 -20.15332,2e-4 0,-25.4347 7e-5,-50.86943"
         id="path621"
         inkscape:connector-curvature="0" />
    </g>
    <g
       style="fill:#000000"
       id="g665"
       transform="translate(-516.18858,-554.13547)">
      <g
         style="fill:#000000;fill-opacity:1;stroke-linejoin:miter"
         id="g627">
        <path
           style="fill:#000000"
           d="m 230.68288,449.7322 c 3.64612,1.20832 6.77934,3.8754 8.27066,7.12312 1.12727,2.48208 1.08384,7.91656 -0.0865,10.32235 -1.24348,2.5152 -3.39841,4.7735 -5.84387,6.04733 -1.78861,0.94575 -2.22685,1.38282 -2.4104,2.29474 -0.11011,0.61979 -0.22502,4.88733 -0.23096,9.40966 l -0.0107,8.28013 1.96845,0.84143 c 2.3698,0.98798 5.35671,3.98284 6.44756,6.46466 1.05502,2.3357 1.30509,6.42112 0.57189,8.93674 -1.5752,5.3599 -6.72298,8.89134 -12.77737,8.77404 -4.52279,-0.11525 -8.71385,-2.8202 -10.71437,-6.98034 -0.87316,-1.78848 -0.98153,-2.48206 -1.01416,-5.50949 0.004,-2.99075 0.15075,-3.75625 0.95552,-5.50607 1.35315,-2.88 3.32546,-4.88364 6.02631,-6.19315 l 2.33568,-1.09118 -0.0609,-9.19157 -0.0974,-9.1918 -1.45822,-0.65826 c -3.82743,-1.79236 -6.19478,-4.53107 -7.32031,-8.43548 -2.2146,-7.91803 3.19338,-15.57032 11.47408,-16.10703 1.53199,-0.0709 3.02746,0.0403 3.97508,0.37017 z m -6.75629,6.73908 c -3.94208,2.00055 -3.98785,9.11356 -0.0876,11.05164 1.89554,0.98715 5.39702,0.88258 6.93036,-0.17334 2.1541,-1.45651 2.73907,-2.58606 2.74266,-5.28522 0.004,-2.7355 -0.79681,-4.3053 -2.87436,-5.58481 -1.53073,-0.94975 -4.88625,-0.9541 -6.71106,-0.008 z m -0.0939,43.84217 c -2.2265,1.23761 -2.77495,2.33087 -2.77889,5.32185 -0.003,2.37102 0.1059,2.7356 1.12561,4.01387 0.65543,0.80319 1.85789,1.68045 2.84226,2.08258 1.49452,0.65865 1.89573,0.69562 3.39171,0.29615 2.22576,-0.6172 3.61306,-1.63663 4.49075,-3.35 0.8412,-1.67665 0.95409,-4.3391 0.22653,-5.76234 -0.72792,-1.387 -2.47655,-2.95798 -3.71623,-3.36076 -1.49473,-0.47616 -4.01203,-0.15114 -5.58174,0.75865 z"
           id="path625"
           inkscape:connector-curvature="0" />
      </g>
      <g
         style="fill:#000000;fill-opacity:1;stroke-linejoin:miter"
         id="g631">
        <path
           style="fill:#000000"
           d="m 72.25146,528.9277 c 2.11431,1.0241 5.429425,4.23777 6.48423,6.3547 0.50915,0.9495 1.05458,2.55494 1.23585,3.5399 0.94161,4.9619 -2.45849,11.1218 -7.3492,13.37674 l -2.15331,0.98211 -0.03001,23.08865 -0.02997,23.05137 11.39503,16.57477 c 6.298505,9.09016 12.05068,17.45031 12.81479,18.61846 l 1.38333,2.0808 9.0825,0.0124 9.04567,0.0125 0.87797,-2.0064 c 1.09759,-2.44244 3.58111,-4.9197 6.35475,-6.2653 1.82488,-0.8734 2.51801,-1.01844 5.36318,-1.01484 2.62616,0.004 3.64734,0.18764 5.06874,0.84619 2.91631,1.35305 4.77422,3.10645 6.12006,5.84369 1.09097,2.22646 1.19993,2.73726 1.19604,5.72846 -0.004,2.77166 -0.1869,3.6102 -0.9915,5.36004 -1.13403,2.44236 -3.61755,4.99249 -5.95362,6.12042 -2.26261,1.09084 -6.6765,1.37684 -9.33821,0.6073 -3.53668,-1.06196 -6.9976,-4.34926 -8.05088,-7.66966 l -0.39941,-1.3508 -8.06052,-0.0466 c -9.30137,-0.012 -12.948684,-0.2351 -13.60487,-0.7831 -0.546145,-0.4385 -6.69876,-9.018 -12.37844,-17.2687 -2.220684,-3.21256 -6.7353,-9.7839 -10.0846,-14.603 l -6.043425,-8.7621 0.0082,-6.3826 c 0.0045,-3.5017 -0.09065,-14.37123 -0.22388,-24.1465 l -0.19582,-17.76337 -1.49452,-0.54907 c -2.26021,-0.87872 -5.13838,-3.58156 -6.302745,-5.99016 -0.909107,-1.86134 -1.017967,-2.44545 -1.013363,-5.91054 0.0044,-3.42846 0.114815,-4.01159 0.992245,-5.65222 1.169998,-2.25989 3.799465,-4.73654 6.062275,-5.75534 2.518238,-1.1271 8.062488,-1.2659 10.213458,-0.2782 z m -8.580073,6.4449 c -0.5476,0.43703 -1.424111,1.3112 -1.862912,2.0035 -1.169181,1.6766 -1.028312,5.3968 0.245987,7.1859 3.495418,4.9286 11.705638,2.27705 11.713608,-3.7784 0.0024,-1.85983 -0.79804,-3.4296 -2.54693,-5.0366 -1.52994,-1.388 -1.56644,-1.388 -4.04686,-1.2452 -1.78752,0.1069 -2.772936,0.3247 -3.502893,0.8708 z m 59.945413,98.7783 c -2.37254,1.2372 -3.06702,2.40324 -3.21683,5.4304 l -0.14916,2.5529 2.00333,2.0454 2.04023,2.0087 2.5532,-0.1429 c 3.0277,-0.1414 4.1956,-0.83336 5.40241,-3.20275 0.98732,-1.85852 1.1001,-4.63061 0.3364,-6.12701 -1.60083,-3.10244 -5.64796,-4.23877 -8.96958,-2.56474 z"
           id="path629"
           inkscape:connector-curvature="0" />
      </g>
      <g
         style="fill:#000000;fill-opacity:1;stroke-linejoin:miter"
         id="g635">
        <path
           style="fill:#000000"
           d="m 112.27917,459.42532 c 3.31814,0.87946 6.96171,3.98465 8.41657,7.12305 l 0.87305,1.93439 10.57734,0.19604 c 11.89051,0.23465 12.10942,0.27085 12.50731,2.75168 0.14487,0.76627 0.24355,8.93686 0.23156,18.16516 l -0.022,16.81482 2.00475,0.98721 c 2.8798,1.42653 4.9926,3.50833 6.2291,6.2089 0.9095,1.97053 1.05433,2.7005 1.01425,5.54563 -0.004,2.88137 -0.11406,3.57424 -0.99195,5.3968 -1.1701,2.33314 -3.61711,4.7006 -6.09884,5.8644 -1.35035,0.61834 -2.3355,0.7632 -5.47211,0.759 -3.31919,-0.004 -4.04865,-0.1148 -5.39715,-0.84574 -2.40575,-1.27991 -4.70057,-3.58086 -5.79208,-5.84363 -1.41885,-2.88333 -1.59558,-7.07803 -0.42439,-10.10393 1.02474,-2.73436 3.47202,-5.35743 6.39187,-6.8858 l 2.15337,-1.12767 0.13027,-15.79379 0.0937,-15.7565 -8.57161,-0.01 -8.53529,-0.0125 -0.98759,2.00522 c -1.20687,2.44207 -4.23805,5.3926 -6.61037,6.44743 -1.13123,0.47255 -2.80939,0.7987 -4.77936,0.94173 -2.91796,0.14227 -3.13687,0.10534 -5.72488,-1.1745 -4.301236,-2.12133 -6.594655,-5.55268 -6.98968,-10.40453 -0.61037,-7.3686 4.50348,-13.1249 11.8718,-13.37056 1.53199,-0.0707 3.28268,0.004 3.90231,0.18768 z m -6.02625,6.30213 c -2.15369,1.09143 -3.83501,3.75205 -3.80138,5.97659 0.10252,5.50796 6.84651,8.36179 10.82718,4.6102 1.53361,-1.42056 2.08257,-2.73304 2.08528,-4.81234 0.003,-2.225 -0.65186,-3.64787 -2.25517,-4.89002 -2.33198,-1.754 -4.55677,-2.01233 -6.85591,-0.88443 z m 32.25463,47.56839 c -2.00729,0.94566 -3.25024,3.02306 -3.25326,5.39416 -0.003,2.4073 0.79721,3.9768 2.69227,5.36505 4.59127,3.32538 10.57754,-0.0228 10.1109,-5.67669 -0.3953,-4.6698 -5.09739,-7.19232 -9.54991,-5.08252 z"
           id="path633"
           inkscape:connector-curvature="0" />
      </g>
      <g
         style="fill:#000000;fill-opacity:1;stroke-linejoin:miter"
         id="g639">
        <path
           style="fill:#000000"
           d="m 15.368854,667.2455 c 3.353732,1.35356 5.248206,3.1797 6.994452,6.64714 l 0.945831,1.89796 5.945233,0.2265 c 6.164037,0.2268 19.65929,0.4635 45.5195,0.8251 24.47413,0.3238 38.2247,0.597 42.12718,0.8209 l 3.64739,0.1871 1.27967,-2.4061 c 1.49912,-2.84284 4.05559,-5.3928 6.50085,-6.4474 2.37234,-1.0545 6.71306,-1.3047 9.04644,-0.4987 3.75515,1.2813 6.77836,4.42217 8.19548,8.5088 0.87207,2.62754 0.86952,4.5241 -0.0458,7.25815 -2.01369,5.9065 -7.05144,9.21905 -13.28814,8.80982 -4.3401,-0.29717 -7.80226,-2.67273 -10.24016,-7.0166 l -1.27369,-2.336 -18.16399,-0.24187 C 92.60147,683.358 79.98158,683.15924 74.58345,683.04254 69.148766,682.9624 55.434708,682.7255 44.091194,682.6017 l -20.680836,-0.28224 -0.950978,2.00488 c -1.133872,2.36969 -3.909568,5.10156 -6.354842,6.229 -1.386845,0.65473 -2.37194,0.7992 -5.362862,0.79529 -3.501423,-0.005 -3.756947,-0.0409 -6.016661,-1.32103 -5.503627,-3.0343 -7.7578247,-8.7639 -5.8897764,-14.8162 1.39177496,-4.37485 3.8021141,-6.70615 8.3997684,-8.12265 3.101677,-0.94395 5.581937,-0.9043 8.133847,0.15675 z m -6.645996,5.7176 c -5.4735628,1.8167 -5.8481296,9.40256 -0.5990005,11.9626 1.9319005,0.9508 3.2814795,0.95266 5.2156585,0.08 2.335979,-1.05484 3.578493,-2.95008 3.728025,-5.64854 0.149643,-2.918 -0.869354,-4.77944 -3.202139,-5.9862 -1.786217,-0.87784 -3.28154,-1.0255 -5.142544,-0.4079 z m 120.801332,2.5638 c -2.62893,2.1123 -3.28967,5.2122 -1.76148,8.16774 1.60092,2.99316 5.21068,4.09256 8.45897,2.52786 2.59119,-1.23635 3.24912,-2.22024 3.39848,-5.0651 0.18692,-3.35576 -0.61334,-4.9252 -3.38339,-6.4241 -1.71329,-0.91445 -4.99649,-0.55386 -6.71258,0.7936 z"
           id="path637"
           inkscape:connector-curvature="0" />
      </g>
      <g
         style="fill:#000000;fill-opacity:1;stroke-linejoin:miter"
         id="g643">
        <path
           style="fill:#000000"
           d="m 83.27891,780.2899 c 1.208395,-3.6461 3.87523,-6.77904 7.12308,-8.27055 2.48173,-1.12735 7.916514,-1.08385 10.32257,0.0865 2.51513,1.2433 4.77361,3.3982 6.04731,5.8436 0.94561,1.78854 1.38295,2.22665 2.29471,2.41024 0.61968,0.11029 4.88741,0.22522 9.41001,0.23096 l 8.27985,0.0111 0.84135,-1.9688 c 0.98792,-2.3695 3.98302,-5.3566 6.46448,-6.44733 2.33574,-1.05487 6.42128,-1.30512 8.93675,-0.57197 5.36014,1.5751 8.89132,6.72285 8.77394,12.7776 -0.1152,4.5222 -2.82016,8.71344 -6.9802,10.7139 -1.78855,0.87325 -2.48196,0.9817 -5.50922,1.0142 -2.99091,-0.004 -3.75639,-0.15065 -5.50621,-0.95546 -2.88001,-1.35324 -4.88356,-3.32504 -6.19324,-6.02588 l -1.09109,-2.336 -9.19166,0.061 -9.19186,0.0974 -0.6583,1.45814 c -1.79212,3.82756 -4.53093,6.19516 -8.43535,7.32066 -7.91802,2.2145 -15.570495,-3.1936 -16.106986,-11.4743 -0.07095,-1.53166 0.04051,-3.0271 0.370066,-3.9751 z m 6.73876,6.7565 c 2.001014,3.9418 9.11396,3.98784 11.05203,0.0876 0.98721,-1.89563 0.88242,-5.39727 -0.17347,-6.93066 -1.45622,-2.15367 -2.58619,-2.73877 -5.285245,-2.74257 -2.735565,-0.003 -4.305145,0.7968 -5.584595,2.8743 -0.94994,1.53074 -0.95438,4.8863 -0.0087,6.7113 z m 43.84273,0.0936 c 1.23726,2.22675 2.33052,2.77535 5.32155,2.77915 2.37118,0.003 2.73577,-0.1059 4.01391,-1.12595 0.80303,-0.65525 1.68045,-1.85779 2.08264,-2.84225 0.6584,-1.49466 0.69556,-1.89554 0.2963,-3.39145 -0.6174,-2.22585 -1.63672,-3.61341 -3.3501,-4.49085 -1.6766,-0.84124 -4.33905,-0.95404 -5.76239,-0.2267 -1.38686,0.7281 -2.95793,2.4768 -3.36078,3.71645 -0.47612,1.49481 -0.15132,4.01215 0.75887,5.5816 z"
           id="path641"
           inkscape:connector-curvature="0" />
      </g>
      <g
         style="fill:#000000;fill-opacity:1;stroke-linejoin:miter"
         id="g647">
        <path
           style="fill:#000000"
           d="m 311.07086,1050.1211 c 3.64609,-1.2084 6.77934,-3.8751 8.27066,-7.1229 1.12726,-2.4821 1.08386,-7.9165 -0.0864,-10.3223 -1.24347,-2.5154 -3.3984,-4.7737 -5.84385,-6.0476 -1.7886,-0.9458 -2.22685,-1.3828 -2.4104,-2.2947 -0.1101,-0.6198 -0.22503,-4.8873 -0.23098,-9.4097 l -0.0108,-8.2802 1.96844,-0.8415 c 2.36984,-0.9879 5.35672,-3.9826 6.44754,-6.46443 1.05505,-2.33567 1.30514,-6.42107 0.57192,-8.93667 -1.57522,-5.3599 -6.72298,-8.8914 -12.77736,-8.77415 -4.5228,0.11525 -8.71381,2.82035 -10.71436,6.98055 -0.87311,1.7883 -0.98151,2.482 -1.01413,5.5093 0.004,2.9908 0.15073,3.75625 0.95547,5.50606 1.35318,2.88004 3.32548,4.88364 6.02631,6.19304 l 2.33567,1.0912 -0.0609,9.1916 -0.0974,9.1919 -1.45822,0.6581 c -3.82746,1.7924 -6.1948,4.5312 -7.32035,8.4357 -2.21459,7.918 3.19339,15.5703 11.47407,16.1071 1.532,0.071 3.02746,-0.041 3.97506,-0.3704 z m -6.75628,-6.739 c -3.94208,-2.0005 -3.98783,-9.1137 -0.0876,-11.0517 1.89556,-0.9873 5.39702,-0.8825 6.93038,0.1734 2.15408,1.4565 2.73907,2.586 2.74264,5.2852 0.004,2.7355 -0.79684,4.3054 -2.87435,5.5849 -1.53077,0.9497 -4.88627,0.9541 -6.71109,0.01 z m -0.0939,-43.84237 c -2.2265,-1.23748 -2.77497,-2.33073 -2.77884,-5.32173 -0.003,-2.3711 0.10587,-2.7357 1.12561,-4.01384 0.65546,-0.80326 1.85788,-1.68042 2.84226,-2.08252 1.49454,-0.65869 1.89572,-0.69564 3.3917,-0.29614 2.22573,0.6172 3.6131,1.6365 4.49074,3.34985 0.84119,1.67675 0.95411,4.33912 0.22651,5.76239 -0.72791,1.38691 -2.47655,2.95796 -3.71622,3.36066 -1.49473,0.4762 -4.01203,0.1513 -5.58176,-0.75867 z"
           id="path645"
           inkscape:connector-curvature="0" />
      </g>
      <g
         style="fill:#000000;fill-opacity:1;stroke-linejoin:miter"
         id="g651">
        <path
           style="fill:#000000"
           d="m 119.89966,980.71783 c 2.11431,-1.02417 5.42942,-4.23783 6.48423,-6.35479 0.50915,-0.9494 1.05459,-2.555 1.23585,-3.5398 0.94162,-4.96197 -2.45849,-11.12174 -7.34919,-13.37671 l -2.15331,-0.98213 -0.03,-23.0886 -0.0299,-23.05134 11.39503,-16.57486 c 6.2985,-9.0903 12.05066,-17.4505 12.81478,-18.6187 l 1.38337,-2.08067 9.0825,-0.0126 9.04567,-0.0124 0.87796,2.00633 c 1.09761,2.4426 3.58112,4.9199 6.35475,6.26546 1.82489,0.87334 2.51802,1.01844 5.36321,1.01474 2.62617,-0.003 3.64734,-0.18753 5.06872,-0.8462 2.91631,-1.3531 4.77423,-3.1065 6.12006,-5.8438 1.09099,-2.2264 1.19996,-2.7372 1.19607,-5.7283 -0.004,-2.7717 -0.18691,-3.61024 -0.9915,-5.36 -1.13403,-2.4424 -3.61753,-4.9925 -5.95362,-6.12035 -2.26259,-1.09088 -6.67652,-1.37695 -9.33825,-0.60745 -3.53666,1.062 -6.99757,4.3493 -8.05085,7.6697 l -0.39942,1.3507 -8.06053,0.0466 c -9.30136,0.0122 -12.94868,0.23526 -13.60487,0.7832 -0.54613,0.43846 -6.69877,9.01786 -12.37847,17.26866 -2.22067,3.2126 -6.73529,9.7841 -10.08459,14.60323 l -6.04344,8.76207 0.008,6.38265 c 0.005,3.50171 -0.0907,14.37109 -0.2239,24.14615 l -0.19583,17.7636 -1.49451,0.549 c -2.26021,0.87865 -5.13838,3.5816 -6.30275,5.99004 -0.90911,1.86136 -1.01797,2.44531 -1.01337,5.91052 0.004,3.42834 0.11482,4.01154 0.99223,5.6521 1.17003,2.25994 3.79949,4.73674 6.0623,5.75537 2.51823,1.12737 8.06247,1.26611 10.21345,0.2785 z m -8.58006,-6.44513 c -0.54761,-0.43707 -1.42412,-1.3112 -1.86291,-2.00353 -1.16918,-1.67657 -1.02832,-5.39687 0.24598,-7.18577 3.49543,-4.92843 11.70564,-2.27694 11.7136,3.7784 0.002,1.85994 -0.79803,3.42964 -2.54693,5.03664 -1.52993,1.388 -1.56644,1.388 -4.04686,1.24526 -1.78751,-0.1069 -2.77294,-0.3247 -3.50288,-0.871 z m 59.94545,-98.77825 c -2.37253,-1.23725 -3.06698,-2.40325 -3.21679,-5.43045 l -0.14918,-2.5529 2.00332,-2.0454 2.04024,-2.0086 2.55322,0.1429 c 3.02773,0.1415 4.19561,0.8335 5.40242,3.2028 0.98732,1.85845 1.10007,4.6304 0.33638,6.1269 -1.60084,3.1024 -5.64794,4.2389 -8.96961,2.56475 z"
           id="path649"
           inkscape:connector-curvature="0" />
      </g>
      <g
         style="fill:#000000;fill-opacity:1;stroke-linejoin:miter"
         id="g655">
        <path
           style="fill:#000000"
           d="m 196.24094,998.15546 c 3.31814,-0.8794 6.96173,-3.98466 8.41659,-7.12306 l 0.87305,-1.9344 10.57733,-0.196 c 11.89049,-0.2347 12.10941,-0.27084 12.50731,-2.7518 0.14488,-0.7662 0.24356,-8.93676 0.2316,-18.1651 l -0.0219,-16.81493 2.00473,-0.98731 c 2.87981,-1.42636 4.9926,-3.50816 6.2291,-6.20876 0.90948,-1.9705 1.0543,-2.7005 1.01423,-5.5455 -0.004,-2.8814 -0.11405,-3.5744 -0.99194,-5.3971 -1.17011,-2.33314 -3.61711,-4.70057 -6.09886,-5.8643 -1.35035,-0.6183 -2.33547,-0.763 -5.47209,-0.75894 -3.3192,0.004 -4.04866,0.11484 -5.39718,0.84574 -2.40573,1.28006 -4.70054,3.5811 -5.79206,5.84384 -1.41884,2.8833 -1.59557,7.07786 -0.42438,10.10386 1.02473,2.7344 3.47201,5.3574 6.39187,6.8857 l 2.15337,1.12757 0.13027,15.79393 0.0937,15.7565 -8.57163,0.0101 -8.53526,0.0125 -0.98761,-2.0053 c -1.20686,-2.442 -4.23804,-5.3925 -6.6104,-6.4473 -1.13121,-0.47267 -2.80937,-0.7987 -4.77934,-0.9417 -2.91795,-0.1423 -3.13687,-0.1055 -5.72487,1.1744 -4.30124,2.1214 -6.59464,5.5527 -6.9897,10.40456 -0.61035,7.36854 4.50348,13.12487 11.87178,13.37054 1.532,0.0707 3.28268,-0.004 3.90232,-0.18774 z m -6.02625,-6.30213 c -2.15367,-1.09143 -3.83499,-3.75203 -3.80138,-5.97653 0.10254,-5.50796 6.84652,-8.36185 10.8272,-4.61026 1.53361,1.42059 2.08255,2.73309 2.08525,4.81236 0.003,2.22493 -0.65186,3.64785 -2.25517,4.89003 -2.33197,1.75397 -4.55677,2.01233 -6.8559,0.8844 z m 32.25467,-47.56848 c -2.00731,-0.94562 -3.25024,-3.02289 -3.25328,-5.39398 -0.003,-2.40737 0.79722,-3.97687 2.69229,-5.36524 4.59129,-3.32537 10.57753,0.0226 10.11092,5.67667 -0.39531,4.6698 -5.09739,7.19235 -9.54993,5.08255 z"
           id="path653"
           inkscape:connector-curvature="0" />
      </g>
      <g
         style="fill:#000000;fill-opacity:1;stroke-linejoin:miter"
         id="g659">
        <path
           style="fill:#000000"
           d="m 47.849815,851.96014 c 3.35373,-1.35354 5.248205,-3.17964 6.994455,-6.64709 l 0.94583,-1.89795 5.94523,-0.2266 c 6.164046,-0.2268 19.65929,-0.4635 45.51951,-0.8252 24.47413,-0.3238 38.2247,-0.59694 42.12718,-0.8208 l 3.6474,-0.18715 1.27965,2.40615 c 1.49913,2.8428 4.0556,5.3928 6.50087,6.44736 2.37231,1.05451 6.71306,1.30469 9.04643,0.49874 3.75514,-1.2813 6.77837,-4.42226 8.19549,-8.50875 0.87207,-2.62755 0.86953,-4.52411 -0.0458,-7.2583 -2.01369,-5.90649 -7.05146,-9.21905 -13.28818,-8.80981 -4.34006,0.29726 -7.8022,2.67276 -10.24013,7.01666 l -1.27374,2.336 -18.16399,0.2418 c -9.95758,0.12233 -22.57748,0.32106 -27.9756,0.43776 -5.43469,0.0802 -19.14873,0.31708 -30.49227,0.44084 l -20.68083,0.2824 -0.950974,-2.0049 c -1.133873,-2.3697 -3.909561,-5.1016 -6.35484,-6.22914 -1.386836,-0.65466 -2.371936,-0.79916 -5.362861,-0.79523 -3.501423,0.005 -3.756943,0.041 -6.016663,1.32107 -5.503633,3.0343 -7.757829,8.76396 -5.889787,14.8162 1.391771,4.3749 3.80211,6.7062 8.399765,8.1227 3.10168,0.94395 5.58194,0.9043 8.133855,-0.15676 z m -6.646005,-5.71759 c -5.473555,-1.81671 -5.848116,-9.40265 -0.59899,-11.9627 1.9319,-0.95081 3.281487,-0.95265 5.215664,-0.0801 2.335976,1.05493 3.578486,2.95019 3.72802,5.64868 0.149639,2.91795 -0.869358,4.77942 -3.202137,5.98621 -1.786221,0.8778 -3.281544,1.02544 -5.142557,0.40789 z m 120.80136,-2.5639 c -2.6289,-2.11218 -3.28964,-5.21205 -1.76144,-8.16765 1.60094,-2.99324 5.21065,-4.09267 8.45895,-2.52797 2.59117,1.23633 3.24909,2.22027 3.39846,5.06517 0.1869,3.3558 -0.61334,4.92525 -3.38341,6.424 -1.71329,0.91446 -4.99649,0.55386 -6.71256,-0.79355 z"
           id="path657"
           inkscape:connector-curvature="0" />
      </g>
      <g
         style="fill:#000000;fill-opacity:1;stroke-linejoin:miter"
         id="g663">
        <path
           style="fill:#000000"
           d="m 115.75995,738.91565 c 1.20841,3.64612 3.87524,6.77899 7.12309,8.27051 2.48171,1.12724 7.91651,1.0838 10.32259,-0.0866 2.51512,-1.2433 4.7736,-3.3982 6.04731,-5.84356 0.94562,-1.78854 1.38296,-2.22664 2.29471,-2.41024 0.61968,-0.11027 4.88741,-0.2252 9.41002,-0.23093 l 8.27985,-0.0111 0.84135,1.96887 c 0.98792,2.36951 3.98299,5.35647 6.46445,6.44721 2.33575,1.05481 6.42128,1.30511 8.93675,0.5719 5.36016,-1.57504 8.89133,-6.72274 8.77399,-12.77744 -0.11521,-4.52225 -2.82016,-8.7135 -6.98021,-10.71396 -1.78855,-0.87324 -2.48193,-0.98169 -5.50922,-1.01414 -2.99092,0.004 -3.75639,0.1506 -5.50624,0.9554 -2.88,1.35324 -4.88354,3.3251 -6.1932,6.0259 l -1.0911,2.33606 -9.19167,-0.0611 -9.19187,-0.0974 -0.6583,-1.45816 c -1.79211,-3.82755 -4.53093,-6.1951 -8.43533,-7.3207 -7.91805,-2.2145 -15.57054,3.19365 -16.10703,11.47435 -0.0709,1.53165 0.0405,3.0271 0.37006,3.9751 z m 6.73878,-6.75645 c 2.001,-3.94185 9.11397,-3.9879 11.05204,-0.0877 0.98721,1.89563 0.88241,5.39727 -0.17347,6.93067 -1.4562,2.1537 -2.58618,2.73877 -5.28527,2.74255 -2.73555,0.003 -4.30513,-0.79681 -5.58458,-2.87425 -0.94995,-1.5308 -0.95439,-4.8863 -0.009,-6.7113 z m 43.84275,-0.0936 c 1.23726,-2.22673 2.33052,-2.7753 5.32154,-2.77916 2.37118,-0.003 2.73577,0.10596 4.01395,1.12596 0.80301,0.6553 1.68043,1.8578 2.08263,2.84224 0.6584,1.49466 0.69555,1.89556 0.2963,3.39146 -0.61741,2.22585 -1.63674,3.6134 -3.35012,4.49086 -1.67661,0.84124 -4.33905,0.95404 -5.76241,0.22669 -1.38684,-0.72809 -2.95793,-2.47681 -3.36076,-3.71645 -0.47613,-1.4948 -0.15134,-4.0121 0.75887,-5.5816 z"
           id="path661"
           inkscape:connector-curvature="0" />
      </g>
    </g>
    <g
       style="fill:#000000"
       id="g707"
       transform="translate(-516.18858,-554.13547)">
      <g
         style="fill:#000000;fill-opacity:1;stroke-linejoin:miter"
         id="g669">
        <path
           style="fill:#000000"
           d="m 495.64493,449.7323 c -3.64613,1.20837 -6.77933,3.87546 -8.27069,7.12314 -1.12726,2.48211 -1.08387,7.91662 0.0864,10.32242 1.24347,2.51519 3.39841,4.77349 5.84384,6.04734 1.78864,0.9457 2.22687,1.38277 2.41044,2.2947 0.1101,0.61978 0.225,4.8874 0.23098,9.4097 l 0.0108,8.28015 -1.96857,0.84135 c -2.36981,0.98796 -5.35669,3.98287 -6.44753,6.46468 -1.05507,2.33569 -1.30513,6.42112 -0.57194,8.93672 1.57524,5.3599 6.72302,8.8913 12.7774,8.774 4.52284,-0.11523 8.71387,-2.8202 10.71444,-6.9803 0.8731,-1.7885 0.98146,-2.48207 1.01408,-5.50948 -0.004,-2.99078 -0.1507,-3.75628 -0.95548,-5.5061 -1.35318,-2.87997 -3.32547,-4.8836 -6.02633,-6.19312 l -2.33567,-1.09115 0.0609,-9.19155 0.0974,-9.19184 1.45824,-0.65824 c 3.8275,-1.79235 6.19484,-4.53106 7.32036,-8.43552 2.21464,-7.91805 -3.19333,-15.57037 -11.47403,-16.10708 -1.53205,-0.0708 -3.0275,0.0403 -3.9751,0.37018 z m 6.75632,6.7391 c 3.94205,2.0006 3.98779,9.11365 0.0875,11.05173 -1.89554,0.98715 -5.39703,0.88257 -6.93037,-0.17337 -2.1541,-1.45651 -2.7391,-2.58603 -2.74267,-5.28522 -0.004,-2.73556 0.79685,-4.30534 2.87443,-5.58486 1.53074,-0.94978 4.88626,-0.95411 6.71109,-0.008 z m 0.0937,43.84223 c 2.22647,1.23757 2.77493,2.33084 2.7789,5.32184 0.003,2.371 -0.10593,2.73563 -1.12565,4.01388 -0.65542,0.80315 -1.85778,1.68042 -2.84225,2.08252 -1.4945,0.65863 -1.89572,0.69563 -3.3917,0.29608 -2.2257,-0.61709 -3.6131,-1.63653 -4.49078,-3.34991 -0.84118,-1.67664 -0.9541,-4.33908 -0.2265,-5.76234 0.72791,-1.38698 2.47656,-2.95797 3.71628,-3.36074 1.49466,-0.47616 4.01196,-0.15116 5.5817,0.75867 z"
           id="path667"
           inkscape:connector-curvature="0" />
      </g>
      <g
         style="fill:#000000;fill-opacity:1;stroke-linejoin:miter"
         id="g673">
        <path
           style="fill:#000000"
           d="m 654.07635,528.9276 c -2.11425,1.0242 -5.42945,4.2378 -6.48425,6.35475 -0.50915,0.94945 -1.05456,2.55499 -1.23584,3.53992 -0.94166,4.96193 2.4585,11.12176 7.34914,13.37673 l 2.1533,0.98215 0.03,23.08869 0.0298,23.05126 -11.395,16.57484 c -6.2986,9.09026 -12.05066,17.4505 -12.8148,18.61866 l -1.3833,2.08074 -9.0824,0.0124 -9.0458,0.0125 -0.8779,-2.00634 c -1.0977,-2.44245 -3.5812,-4.91975 -6.3549,-6.2653 -1.8248,-0.87344 -2.5179,-1.01846 -5.36314,-1.01486 -2.6261,0.004 -3.64736,0.18762 -5.06873,0.84619 -2.91638,1.35297 -4.77429,3.10647 -6.11999,5.84367 -1.09104,2.22646 -1.19994,2.73726 -1.19604,5.7285 0.004,2.7716 0.1869,3.6102 0.99145,5.35996 1.13405,2.44234 3.61745,4.99244 5.95361,6.1203 2.26257,1.09088 6.67639,1.37684 9.33814,0.60734 3.53674,-1.06187 6.9977,-4.3492 8.051,-7.6696 l 0.39943,-1.3507 8.06057,-0.0467 c 9.30125,-0.012 12.9486,-0.23504 13.60484,-0.783 0.54616,-0.4385 6.69861,-9.0181 12.3783,-17.2688 2.2207,-3.2126 6.73536,-9.784 10.08456,-14.60316 l 6.0435,-8.76214 -0.008,-6.38264 c -0.005,-3.50166 0.0907,-14.37109 0.2241,-24.14626 l 0.1958,-17.7635 1.49454,-0.5491 c 2.26026,-0.87866 5.13842,-3.58154 6.30276,-5.99005 0.90915,-1.86145 1.01804,-2.4455 1.0134,-5.91065 -0.004,-3.4284 -0.11475,-4.0116 -0.9922,-5.6522 -1.17003,-2.2599 -3.7994,-4.7366 -6.06224,-5.7553 -2.51831,-1.12716 -8.0625,-1.26596 -10.21351,-0.2783 z m 8.58008,6.445 c 0.54761,0.437 1.42417,1.3111 1.86292,2.0035 1.16919,1.6765 1.02832,5.3968 -0.2461,7.1859 -3.49535,4.9286 -11.70555,2.27705 -11.7135,-3.7784 -0.002,-1.8599 0.79795,-3.4296 2.54685,-5.03665 1.53006,-1.38795 1.56656,-1.38795 4.0469,-1.24525 1.7875,0.10694 2.77295,0.3248 3.50293,0.8709 z m -59.94568,98.77846 c 2.37255,1.23724 3.06705,2.40334 3.21695,5.43048 l 0.149,2.55292 -2.0033,2.04534 -2.04026,2.0086 -2.55324,-0.14287 c -3.0277,-0.14148 -4.19554,-0.83337 -5.4023,-3.20273 -0.9873,-1.85855 -1.1001,-4.6306 -0.33645,-6.127 1.60085,-3.10246 5.64795,-4.2388 8.9696,-2.56474 z"
           id="path671"
           inkscape:connector-curvature="0" />
      </g>
      <g
         style="fill:#000000;fill-opacity:1;stroke-linejoin:miter"
         id="g677">
        <path
           style="fill:#000000"
           d="m 614.0487,459.42535 c -3.3181,0.87949 -6.9618,3.98465 -8.4166,7.12305 l -0.87307,1.93442 -10.57739,0.19604 c -11.89038,0.23468 -12.10937,0.27084 -12.5072,2.75171 -0.1449,0.76623 -0.24354,8.93683 -0.23154,18.16513 l 0.0218,16.81488 -2.00474,0.98722 c -2.87976,1.42648 -4.99249,3.5083 -6.22906,6.2088 -0.90955,1.9705 -1.0543,2.70047 -1.0143,5.54556 0.004,2.88141 0.11415,3.57434 0.99196,5.39694 1.17014,2.3331 3.61718,4.7005 6.09887,5.86435 1.35037,0.61835 2.33547,0.76315 5.47207,0.75895 3.3192,-0.004 4.0487,-0.1147 5.3971,-0.8457 2.40574,-1.27995 4.70054,-3.5809 5.7921,-5.8436 1.4188,-2.8834 1.5956,-7.0781 0.4244,-10.10395 -1.02475,-2.73437 -3.4721,-5.35742 -6.3919,-6.88577 l -2.1533,-1.12766 -0.13025,-15.79379 -0.0937,-15.75653 8.57156,-0.0101 8.5354,-0.0125 0.98754,2.00525 c 1.2069,2.4421 4.23804,5.3926 6.61036,6.44738 1.13124,0.47254 2.80934,0.79872 4.77929,0.94172 2.91795,0.1423 3.13695,0.10534 5.72485,-1.17447 4.3013,-2.12137 6.59473,-5.55273 6.98975,-10.40453 0.61035,-7.3686 -4.50341,-13.12483 -11.8717,-13.3705 -1.53198,-0.0707 -3.28272,0.004 -3.90235,0.18765 z m 6.02625,6.3021 c 2.15369,1.0914 3.83495,3.75201 3.80125,5.97659 -0.1025,5.5079 -6.8464,8.36179 -10.8271,4.61016 -1.5336,-1.42052 -2.08255,-2.73302 -2.08523,-4.81228 -0.003,-2.225 0.65183,-3.64789 2.25513,-4.89007 2.332,-1.75397 4.55676,-2.01233 6.85595,-0.8844 z M 587.8201,513.2959 c 2.00735,0.9457 3.2503,3.023 3.2533,5.3941 0.003,2.40735 -0.7972,3.9768 -2.69224,5.3651 -4.5913,3.32533 -10.57751,-0.0228 -10.11086,-5.6767 0.3953,-4.66984 5.09744,-7.19224 9.5498,-5.0825 z"
           id="path675"
           inkscape:connector-curvature="0" />
      </g>
      <g
         style="fill:#000000;fill-opacity:1;stroke-linejoin:miter"
         id="g681">
        <path
           style="fill:#000000"
           d="m 710.9587,667.2454 c -3.3538,1.35354 -5.2482,3.1797 -6.9944,6.6472 l -0.9459,1.8979 -5.9452,0.2265 c -6.1641,0.22684 -19.6593,0.46347 -45.51955,0.82516 -24.47425,0.32384 -38.22475,0.59704 -42.12732,0.82099 l -3.64733,0.18715 -1.2797,-2.4062 c -1.4991,-2.8428 -4.0555,-5.39277 -6.5008,-6.44733 -2.37234,-1.05451 -6.71304,-1.30477 -9.0464,-0.49872 -3.75514,1.28125 -6.77833,4.42215 -8.19545,8.50879 -0.87205,2.62756 -0.8695,4.5241 0.0456,7.25816 2.0138,5.9065 7.0515,9.2191 13.2882,8.8098 4.3401,-0.2972 7.80226,-2.6727 10.24025,-7.0165 l 1.27368,-2.3361 18.16397,-0.24185 c 9.9576,-0.12232 22.5775,-0.32115 27.9757,-0.43785 5.43455,-0.0802 19.14866,-0.31704 30.4923,-0.4409 l 20.6808,-0.28226 0.951,2.005 c 1.13394,2.36966 3.9096,5.10156 6.35476,6.22906 1.38684,0.65467 2.37194,0.7992 5.36294,0.7953 3.5013,-0.005 3.75693,-0.041 6.0166,-1.32105 5.50364,-3.03435 7.7578,-8.76405 5.88975,-14.81635 -1.39175,-4.3748 -3.80215,-6.7061 -8.39965,-8.1226 -3.1017,-0.944 -5.58204,-0.9044 -8.1339,0.1567 z m 6.646,5.71755 c 5.4735,1.81671 5.8481,9.40265 0.599,11.96275 -1.9319,0.9508 -3.2815,0.95266 -5.2157,0.08 -2.33596,-1.05487 -3.5785,-2.95014 -3.72805,-5.64864 -0.14955,-2.918 0.86938,-4.7794 3.20215,-5.9862 1.78625,-0.8778 3.2816,-1.02544 5.1426,-0.40795 z M 596.8033,675.527 c 2.6289,2.1123 3.28966,5.21214 1.76146,8.1677 -1.60106,2.99317 -5.2107,4.0925 -8.45911,2.52783 -2.59105,-1.23633 -3.24905,-2.22023 -3.39831,-5.06503 -0.18689,-3.35586 0.61326,-4.92526 3.38342,-6.42416 1.71324,-0.91444 4.99644,-0.55384 6.71254,0.79366 z"
           id="path679"
           inkscape:connector-curvature="0" />
      </g>
      <g
         style="fill:#000000;fill-opacity:1;stroke-linejoin:miter"
         id="g685">
        <path
           style="fill:#000000"
           d="m 643.0483,780.29004 c -1.2083,-3.64604 -3.87514,-6.77899 -7.12295,-8.27054 -2.48181,-1.1273 -7.9165,-1.0838 -10.32251,0.0866 -2.51514,1.24326 -4.77368,3.39816 -6.04734,5.84356 -0.9457,1.7885 -1.3831,2.2266 -2.2948,2.4102 -0.61965,0.11025 -4.88735,0.22524 -9.40993,0.23104 l -8.27991,0.0111 -0.84131,-1.96885 c -0.98791,-2.36947 -3.98305,-5.3566 -6.46445,-6.4474 -2.33584,-1.0549 -6.4213,-1.3051 -8.9368,-0.5719 -5.3601,1.57506 -8.8912,6.72283 -8.7739,12.7776 0.1151,4.52214 2.82005,8.71336 6.9801,10.7138 1.78856,0.8733 2.4819,0.98174 5.50914,1.0142 2.99096,-0.004 3.75646,-0.1506 5.50623,-0.9555 2.88003,-1.35315 4.88353,-3.32495 6.19323,-6.0258 l 1.09107,-2.336 9.19177,0.061 9.19189,0.0975 0.65833,1.4581 c 1.79214,3.82754 4.53088,6.1951 8.4353,7.3207 7.91797,2.2144 15.57044,-3.19366 16.10694,-11.47436 0.0709,-1.53174 -0.0405,-3.0271 -0.3701,-3.9751 z m -6.73867,6.75646 c -2.00098,3.94184 -9.11403,3.9879 -11.05203,0.0877 -0.9873,-1.8956 -0.8824,-5.3973 0.1735,-6.93065 1.4563,-2.15365 2.5862,-2.73871 5.2853,-2.74249 2.73557,-0.003 4.305,0.79669 5.58444,2.87414 0.94996,1.53077 0.95436,4.8863 0.009,6.7113 z m -43.84277,0.0936 c -1.23731,2.2267 -2.33056,2.77524 -5.32156,2.7791 -2.3712,0.003 -2.7358,-0.1059 -4.0139,-1.1259 -0.8031,-0.6553 -1.68053,-1.8579 -2.08263,-2.84225 -0.65833,-1.49455 -0.69544,-1.89545 -0.29627,-3.39135 0.61743,-2.22584 1.6367,-3.6135 3.3501,-4.49085 1.67664,-0.84131 4.3391,-0.9541 5.76245,-0.22669 1.38685,0.72809 2.95789,2.47684 3.36072,3.71637 0.47607,1.49487 0.15137,4.01217 -0.75891,5.58157 z"
           id="path683"
           inkscape:connector-curvature="0" />
      </g>
      <g
         style="fill:#000000;fill-opacity:1;stroke-linejoin:miter"
         id="g689">
        <path
           style="fill:#000000"
           d="m 415.25577,1050.1211 c -3.64597,-1.2084 -6.77921,-3.8751 -8.27054,-7.1229 -1.12726,-2.4821 -1.08386,-7.9165 0.0864,-10.3223 1.24346,-2.5154 3.3984,-4.7737 5.84384,-6.0476 1.7886,-0.9458 2.22686,-1.3828 2.4104,-2.2947 0.1101,-0.6198 0.22503,-4.8873 0.231,-9.4097 l 0.0108,-8.2802 -1.96846,-0.8415 c -2.36983,-0.9879 -5.35668,-3.9824 -6.44753,-6.4643 -1.05505,-2.3357 -1.30514,-6.4211 -0.57187,-8.9366 1.57523,-5.35986 6.723,-8.89135 12.77735,-8.77416 4.52279,0.11529 8.71383,2.82036 10.71435,6.98053 0.87314,1.78833 0.9815,2.48199 1.0141,5.50927 -0.004,2.99076 -0.1507,3.75623 -0.95547,5.50606 -1.35318,2.8799 -3.3255,4.8835 -6.02631,6.1929 l -2.33569,1.0912 0.0609,9.1916 0.0974,9.1919 1.45822,0.6581 c 3.82746,1.7924 6.1948,4.5312 7.32033,8.4357 2.21462,7.9178 -3.19337,15.5703 -11.47417,16.1071 -1.53198,0.071 -3.02743,-0.041 -3.97506,-0.3704 z m 6.75641,-6.739 c 3.94204,-2.0005 3.98782,-9.1137 0.0876,-11.0517 -1.89556,-0.9873 -5.39703,-0.8825 -6.93039,0.1734 -2.15407,1.4565 -2.73907,2.586 -2.74264,5.2852 -0.004,2.7355 0.79684,4.3054 2.87437,5.5849 1.53075,0.9497 4.88625,0.9541 6.71108,0.01 z m 0.0939,-43.84224 c 2.2265,-1.23749 2.77496,-2.33076 2.77884,-5.32172 0.003,-2.37109 -0.10587,-2.73574 -1.12555,-4.01374 -0.65547,-0.8033 -1.85787,-1.6804 -2.84227,-2.0825 -1.49452,-0.6587 -1.89574,-0.6956 -3.3917,-0.29616 -2.22575,0.61719 -3.61308,1.63646 -4.49073,3.34986 -0.84125,1.67663 -0.95417,4.339 -0.22657,5.76227 0.72794,1.3869 2.47657,2.95793 3.71625,3.36063 1.49472,0.4762 4.012,0.1513 5.58173,-0.75864 z"
           id="path687"
           inkscape:connector-curvature="0" />
      </g>
      <g
         style="fill:#000000;fill-opacity:1;stroke-linejoin:miter"
         id="g693">
        <path
           style="fill:#000000"
           d="m 606.42706,980.71783 c -2.11426,-1.02417 -5.42946,-4.23783 -6.48426,-6.35479 -0.50915,-0.94928 -1.05456,-2.55494 -1.2358,-3.5398 -0.94156,-4.96194 2.45847,-11.1217 7.34934,-13.37654 l 2.15332,-0.98216 0.03,-23.08881 0.0299,-23.05123 -11.395,-16.57474 c -6.2985,-9.09026 -12.0507,-17.45056 -12.81485,-18.61872 l -1.3833,-2.08064 -9.08239,-0.0126 -9.04566,-0.0124 -0.87805,2.00635 c -1.09765,2.44244 -3.58115,4.91974 -6.35485,6.2653 -1.82484,0.8734 -2.51795,1.0184 -5.36305,1.0148 -2.62622,-0.004 -3.64735,-0.18763 -5.06875,-0.8463 -2.91635,-1.35305 -4.77426,-3.1065 -6.1201,-5.8438 -1.09093,-2.22623 -1.19994,-2.7371 -1.19603,-5.7282 0.004,-2.7716 0.18689,-3.6102 0.99157,-5.36 1.13406,-2.4423 3.61746,-4.9924 5.95362,-6.12033 2.26254,-1.09087 6.67654,-1.37697 9.33824,-0.60747 3.53663,1.06194 6.9976,4.3494 8.0508,7.6698 l 0.3994,1.3507 8.06056,0.0466 c 9.30139,0.0122 12.94874,0.23525 13.60484,0.7832 0.54616,0.4385 6.69874,9.0179 12.3783,17.2687 2.2207,3.2126 6.7355,9.7842 10.0847,14.6033 l 6.0435,8.7619 -0.008,6.38255 c -0.004,3.50171 0.0907,14.37115 0.2239,24.14635 l 0.1958,17.7636 1.4946,0.54903 c 2.26014,0.87867 5.1383,3.5816 6.3026,5.99007 0.9092,1.8614 1.0181,2.4453 1.01345,5.9105 -0.005,3.4282 -0.11485,4.0115 -0.99231,5.6519 -1.17004,2.26 -3.79954,4.7368 -6.06238,5.7554 -2.51816,1.1274 -8.0625,1.26604 -10.2135,0.27843 z m 8.5802,-6.44506 c 0.54764,-0.43697 1.42408,-1.31107 1.86294,-2.00357 1.16917,-1.6765 1.0284,-5.39664 -0.2459,-7.18564 -3.49545,-4.92841 -11.7058,-2.27692 -11.7137,3.77844 -0.002,1.8598 0.79784,3.4295 2.54674,5.03656 1.53003,1.38788 1.56652,1.38788 4.04686,1.24504 1.7876,-0.1068 2.7731,-0.3246 3.50306,-0.87083 z M 555.0618,875.49445 c 2.3726,-1.23705 3.06705,-2.40305 3.21695,-5.43025 l 0.14915,-2.553 -2.0033,-2.0453 -2.04026,-2.0087 -2.55324,0.1429 c -3.0277,0.1416 -4.19554,0.8335 -5.4023,3.2029 -0.98745,1.85844 -1.1001,4.6304 -0.33645,6.1269 1.60085,3.10227 5.64795,4.23874 8.96945,2.56455 z"
           id="path691"
           inkscape:connector-curvature="0" />
      </g>
      <g
         style="fill:#000000;fill-opacity:1;stroke-linejoin:miter"
         id="g697">
        <path
           style="fill:#000000"
           d="m 530.0859,998.1556 c -3.31826,-0.8795 -6.9618,-3.9847 -8.41665,-7.1231 l -0.87305,-1.93436 -10.5773,-0.19604 c -11.8905,-0.2346 -12.1094,-0.2708 -12.50732,-2.7517 -0.14488,-0.76624 -0.24353,-8.9368 -0.23158,-18.1653 l 0.022,-16.8149 -2.00475,-0.9872 c -2.87983,-1.42647 -4.9926,-3.5082 -6.22907,-6.20876 -0.90946,-1.97054 -1.05429,-2.7005 -1.01413,-5.54554 0.004,-2.88134 0.11404,-3.5743 0.99194,-5.397 1.17011,-2.33315 3.6171,-4.7006 6.09888,-5.86434 1.35034,-0.61841 2.33542,-0.76312 5.47208,-0.75896 3.31918,0.004 4.04864,0.1148 5.39715,0.84575 2.40573,1.27995 4.70055,3.58095 5.79205,5.84369 1.4189,2.88336 1.5955,7.07786 0.4243,10.10386 -1.02476,2.73434 -3.47203,5.3574 -6.3919,6.88576 l -2.15334,1.12754 -0.13026,15.794 -0.0937,15.75656 8.57165,0.0101 8.53515,0.0125 0.9877,-2.00526 c 1.2069,-2.44204 4.238,-5.39254 6.6103,-6.44734 1.13125,-0.47265 2.80935,-0.7987 4.7793,-0.9417 2.918,-0.1424 3.137,-0.1055 5.7249,1.1744 4.30125,2.1214 6.5947,5.5527 6.9897,10.4046 0.6104,7.3685 -4.5035,13.12486 -11.8718,13.3705 -1.532,0.0707 -3.2826,-0.004 -3.9022,-0.1877 z m 6.0262,-6.30215 c 2.1536,-1.09145 3.835,-3.75201 3.8013,-5.97655 -0.10255,-5.50794 -6.84644,-8.3618 -10.82716,-4.61024 -1.53354,1.4206 -2.08254,2.7331 -2.0852,4.81238 -0.003,2.22492 0.65186,3.64776 2.25512,4.88996 2.33194,1.754 4.55674,2.0123 6.85594,0.88445 z m -32.25462,-47.5686 c 2.00732,-0.94562 3.25025,-3.02289 3.25332,-5.39398 0.003,-2.40727 -0.79714,-3.97681 -2.69222,-5.36517 -4.59125,-3.3253 -10.57755,0.0226 -10.11098,5.6767 0.39525,4.6698 5.0973,7.19225 9.54988,5.08245 z"
           id="path695"
           inkscape:connector-curvature="0" />
      </g>
      <g
         style="fill:#000000;fill-opacity:1;stroke-linejoin:miter"
         id="g701">
        <path
           style="fill:#000000"
           d="m 678.47736,851.96014 c -3.35376,-1.35344 -5.2483,-3.17964 -6.99451,-6.64709 l -0.9458,-1.89795 -5.94519,-0.2265 c -6.16406,-0.2268 -19.6593,-0.4635 -45.51956,-0.82514 -24.4742,-0.32386 -38.2248,-0.59696 -42.1273,-0.82086 l -3.64733,-0.1872 -1.27967,2.4062 c -1.49914,2.8428 -4.05566,5.3928 -6.501,6.4473 -2.3723,1.0546 -6.713,1.3048 -9.04636,0.4988 -3.75514,-1.28137 -6.77834,-4.42224 -8.19544,-8.50885 -0.87206,-2.62755 -0.8696,-4.52411 0.0458,-7.25835 2.01366,-5.90644 7.0515,-9.219 13.2882,-8.8098 4.3401,0.2973 7.80224,2.6728 10.2401,7.0167 l 1.2738,2.33606 18.16395,0.24184 c 9.95765,0.1223 22.57765,0.3212 27.97571,0.43785 5.43469,0.0802 19.1488,0.31705 30.49231,0.44079 l 20.68078,0.28241 0.95095,-2.005 c 1.1339,-2.36965 3.90965,-5.1015 6.35496,-6.22905 1.38684,-0.6547 2.37194,-0.79915 5.36294,-0.7953 3.5013,0.005 3.7568,0.041 6.0166,1.32104 5.50364,3.0343 7.7578,8.76406 5.8896,14.81622 -1.3917,4.37484 -3.8021,6.70618 -8.39975,8.12264 -3.10169,0.944 -5.58191,0.90434 -8.13379,-0.15676 z m 6.64599,-5.71754 c 5.47351,-1.8167 5.84825,-9.4026 0.59915,-11.96263 -1.9319,-0.95087 -3.2815,-0.95267 -5.2157,-0.0801 -2.33596,1.0549 -3.5785,2.9501 -3.72805,5.6487 -0.14965,2.91794 0.86925,4.7793 3.20205,5.98606 1.7862,0.8778 3.28147,1.02544 5.14255,0.40794 z m -120.80151,-2.5639 c 2.6289,-2.1123 3.28966,-5.2121 1.76146,-8.1677 -1.60094,-2.9933 -5.2107,-4.09267 -8.459,-2.528 -2.59116,1.23636 -3.249,2.2203 -3.3984,5.0652 -0.1869,3.3558 0.6134,4.92525 3.3834,6.42415 1.7133,0.91435 4.9965,0.55385 6.71254,-0.79365 z"
           id="path699"
           inkscape:connector-curvature="0" />
      </g>
      <g
         style="fill:#000000;fill-opacity:1;stroke-linejoin:miter"
         id="g705">
        <path
           style="fill:#000000"
           d="m 610.56744,738.9157 c -1.20849,3.6462 -3.87524,6.7791 -7.12304,8.27064 -2.4818,1.12726 -7.9166,1.08376 -10.32263,-0.0866 -2.51517,-1.24323 -4.77357,-3.39819 -6.04737,-5.84357 -0.94555,-1.78851 -1.3828,-2.22662 -2.29455,-2.41021 -0.61975,-0.11029 -4.88745,-0.22525 -9.41005,-0.23095 l -8.28,-0.0111 -0.8413,1.96885 c -0.98794,2.36951 -3.98306,5.35651 -6.4645,6.44725 -2.3358,1.05477 -6.4214,1.305 -8.9368,0.5719 -5.3601,-1.575 -8.8913,-6.72276 -8.7739,-12.7775 0.11524,-4.5223 2.8202,-8.7135 6.9802,-10.714 1.7885,-0.8732 2.48196,-0.98175 5.5092,-1.01416 2.99095,0.004 3.75633,0.15056 5.5062,0.95546 2.88,1.35314 4.88355,3.32506 6.19325,6.0259 l 1.09105,2.3361 9.1919,-0.061 9.1918,-0.0975 0.6583,-1.45815 c 1.7921,-3.82765 4.5309,-6.19519 8.4353,-7.3208 7.918,-2.21445 15.57044,3.1936 16.10694,11.47435 0.0709,1.5317 -0.0405,3.0271 -0.37,3.9751 z m -6.73874,-6.75646 c -2.0011,-3.94184 -9.1139,-3.98784 -11.05215,-0.0876 -0.98718,1.89554 -0.88235,5.39727 0.17358,6.93064 1.45617,2.15364 2.58617,2.7387 5.28527,2.7425 2.7355,0.003 4.30507,-0.79674 5.5845,-2.8742 0.94994,-1.53076 0.95445,-4.8863 0.009,-6.71136 z m -43.8429,-0.0935 c -1.2372,-2.22673 -2.33047,-2.77539 -5.32155,-2.77923 -2.3711,-0.003 -2.73575,0.10596 -4.01395,1.12604 -0.80295,0.65526 -1.6804,1.85776 -2.0826,2.84222 -0.65834,1.49464 -0.69557,1.89551 -0.2963,3.39148 0.61745,2.22576 1.63674,3.6134 3.3501,4.49086 1.67666,0.84123 4.339,0.954 5.7625,0.2266 1.3868,-0.728 2.95786,-2.4768 3.3607,-3.71636 0.47606,-1.49484 0.15136,-4.01214 -0.7589,-5.58161 z"
           id="path703"
           inkscape:connector-curvature="0" />
      </g>
    </g>
  </g>
</svg>
